<svg width="21" height="18" viewBox="0 0 21 18" fill="none" xmlns="http://www.w3.org/2000/svg">
<path fill-rule="evenodd" clip-rule="evenodd" d="M6.5 0H11.5C13.1569 0 14.5 1.34315 14.5 3V15C14.5 16.6569 13.1569 18 11.5 18H11.25V16.5C11.25 15.2574 10.2426 14.25 9 14.25C7.75736 14.25 6.75 15.2574 6.75 16.5V18H6.5C4.84315 18 3.5 16.6569 3.5 15V3C3.5 1.34315 4.84315 0 6.5 0ZM6.5 2.75C6.08579 2.75 5.75 3.08579 5.75 3.5C5.75 3.91421 6.08579 4.25 6.5 4.25H7.5C7.91421 4.25 8.25 3.91421 8.25 3.5C8.25 3.08579 7.91421 2.75 7.5 2.75H6.5ZM9.75 3.5C9.75 3.08579 10.0858 2.75 10.5 2.75H11.5C11.9142 2.75 12.25 3.08579 12.25 3.5C12.25 3.91421 11.9142 4.25 11.5 4.25H10.5C10.0858 4.25 9.75 3.91421 9.75 3.5ZM6.5 5.75C6.08579 5.75 5.75 6.08579 5.75 6.5C5.75 6.91421 6.08579 7.25 6.5 7.25H7.5C7.91421 7.25 8.25 6.91421 8.25 6.5C8.25 6.08579 7.91421 5.75 7.5 5.75H6.5ZM5.75 9.5C5.75 9.08579 6.08579 8.75 6.5 8.75H7.5C7.91421 8.75 8.25 9.08579 8.25 9.5C8.25 9.91421 7.91421 10.25 7.5 10.25H6.5C6.08579 10.25 5.75 9.91421 5.75 9.5ZM6.5 11.75C6.08579 11.75 5.75 12.0858 5.75 12.5C5.75 12.9142 6.08579 13.25 6.5 13.25H7.5C7.91421 13.25 8.25 12.9142 8.25 12.5C8.25 12.0858 7.91421 11.75 7.5 11.75H6.5ZM9.75 6.5C9.75 6.08579 10.0858 5.75 10.5 5.75H11.5C11.9142 5.75 12.25 6.08579 12.25 6.5C12.25 6.91421 11.9142 7.25 11.5 7.25H10.5C10.0858 7.25 9.75 6.91421 9.75 6.5ZM10.5 8.75C10.0858 8.75 9.75 9.08579 9.75 9.5C9.75 9.91421 10.0858 10.25 10.5 10.25H11.5C11.9142 10.25 12.25 9.91421 12.25 9.5C12.25 9.08579 11.9142 8.75 11.5 8.75H10.5ZM9.75 12.5C9.75 12.0858 10.0858 11.75 10.5 11.75H11.5C11.9142 11.75 12.25 12.0858 12.25 12.5C12.25 12.9142 11.9142 13.25 11.5 13.25H10.5C10.0858 13.25 9.75 12.9142 9.75 12.5Z" fill="#246DFF"/>
<path d="M8.25 18V16.5C8.25 16.0858 8.58579 15.75 9 15.75C9.41421 15.75 9.75 16.0858 9.75 16.5V18H8.25Z" fill="#246DFF"/>
<path d="M2.5 6.5415C1.08114 6.77954 0 8.01353 0 9.50002V14.2402C0 15.8971 1.34315 17.2402 3 17.2402H3.5V17.2361C2.88625 16.6868 2.5 15.8885 2.5 15V6.5415Z" fill="#246DFF"/>
<path d="M18.75 13.1862C18.7838 13.1214 18.8256 13.0399 18.8737 12.9442C19.0016 12.6896 19.1744 12.3325 19.3547 11.9211C19.7069 11.1171 20.1191 10.0361 20.2435 9.09863C20.5099 7.09207 19.6337 5.46389 19.0668 4.64405C18.5425 3.8859 17.4576 3.8859 16.9333 4.64405C16.3664 5.46389 15.4902 7.09207 15.7566 9.09863C15.881 10.0361 16.2932 11.1171 16.6454 11.9211C16.8257 12.3325 16.9985 12.6896 17.1264 12.9442C17.1745 13.0399 17.2163 13.1214 17.25 13.1862V16.9999C17.25 17.4142 17.5858 17.7499 18 17.7499C18.4143 17.7499 18.75 17.4142 18.75 16.9999V13.1862Z" fill="#246DFF"/>
</svg>
