<svg width="28" height="28" viewBox="0 0 28 28" fill="none" xmlns="http://www.w3.org/2000/svg">
<path fill-rule="evenodd" clip-rule="evenodd" d="M28 14C28 8.76615 28 6.14923 26.8746 4.2C26.1374 2.92304 25.077 1.86264 23.8 1.12539C21.8508 0 19.2339 0 14 0C8.76615 0 6.14923 0 4.2 1.12539C2.92304 1.86264 1.86264 2.92304 1.12539 4.2C0 6.14923 0 8.76615 0 14C0 19.2339 0 21.8508 1.12539 23.8C1.86264 25.077 2.92304 26.1374 4.2 26.8746C6.14923 28 8.76615 28 14 28C19.2339 28 21.8508 28 23.8 26.8746C25.077 26.1374 26.1374 25.077 26.8746 23.8C28 21.8508 28 19.2339 28 14ZM16.1425 18.8575C16.5525 19.2676 16.5525 19.9324 16.1425 20.3425C15.7324 20.7525 15.0676 20.7525 14.6575 20.3425L11.0374 16.7224C9.53392 15.2188 9.53392 12.7812 11.0374 11.2776L14.6575 7.65754C15.0676 7.24749 15.7324 7.24749 16.1425 7.65754C16.5525 8.06759 16.5525 8.73241 16.1425 9.14246L12.5224 12.7626C11.8389 13.446 11.8389 14.554 12.5224 15.2374L16.1425 18.8575Z" fill="#246DFF"/>
</svg>
