<svg width="20" height="21" viewBox="0 0 20 21" fill="none" xmlns="http://www.w3.org/2000/svg">
<path d="M9.36911 16.6496C9.02446 16.4198 8.55881 16.513 8.32905 16.8576C8.09928 17.2023 8.19241 17.6679 8.53706 17.8977C9.69731 18.6712 11.2089 18.6712 12.3691 17.8977C12.7138 17.6679 12.8069 17.2023 12.5771 16.8576C12.3474 16.513 11.8817 16.4198 11.5371 16.6496C10.8807 17.0872 10.0255 17.0872 9.36911 16.6496Z" fill="#246DFF"/>
<path d="M8.95312 13.2736C8.95312 14.102 8.28155 14.7736 7.45312 14.7736C6.6247 14.7736 5.95312 14.102 5.95312 13.2736C5.95312 12.4451 6.6247 11.7736 7.45312 11.7736C8.28155 11.7736 8.95312 12.4451 8.95312 13.2736Z" fill="#246DFF"/>
<path fill-rule="evenodd" clip-rule="evenodd" d="M9.97045 0.774596C9.98358 0.773905 9.99672 0.77356 10.0099 0.77356C12.352 0.77356 14.9562 1.29167 16.9053 3.17118C18.8675 5.0633 20.0153 8.18747 19.7587 13.063C19.7412 13.3953 19.5069 13.6763 19.1831 13.7532C18.9361 13.8119 18.6821 13.7411 18.5022 13.5758C18.0404 15.7419 16.9961 17.3818 15.6894 18.5466C13.9526 20.0949 11.7865 20.7736 10.0099 20.7736C8.2465 20.7736 6.43444 20.2262 5.00675 18.9596C3.85798 17.9404 3.00054 16.4931 2.60276 14.5922C2.34332 14.7263 2.01295 14.8107 1.64793 14.6911C1.1454 14.5264 0.888144 14.0693 0.744774 13.6999C0.588132 13.2963 0.477543 12.7642 0.396604 12.1166C0.145956 10.1112 0.0855353 9.06118 0.107045 8.4353C0.124728 7.92075 0.228248 7.55126 0.260542 7.436C0.265792 7.41726 0.269174 7.40519 0.269974 7.40038C0.53615 5.80172 1.06651 4.56534 1.79917 3.61904C2.5333 2.67084 3.44159 2.05138 4.40557 1.64492C6.05979 0.947435 7.93583 0.865296 9.39468 0.801424C9.595 0.792654 9.78752 0.784224 9.97045 0.774596ZM3.92694 13.3786C4.16271 15.4892 4.96818 16.9201 6.00224 17.8375C7.1106 18.8209 8.54857 19.2736 10.0099 19.2736C11.4386 19.2736 13.2439 18.7171 14.6913 17.4269C16.0034 16.2572 17.0511 14.4582 17.232 11.8404C16.0793 11.934 15.1139 11.9998 14.2286 11.9893C14.6628 12.2521 14.9531 12.7289 14.9531 13.2736C14.9531 14.102 14.2816 14.7736 13.4531 14.7736C12.6247 14.7736 11.9531 14.102 11.9531 13.2736C11.9531 12.6587 12.3231 12.1302 12.8525 11.8986C12.7437 11.8847 12.6353 11.8689 12.527 11.8514C11.1331 11.625 9.798 11.0979 7.96736 10.1262C7.6326 10.7374 7.0609 11.2262 6.52239 11.6258C6.10893 11.9327 5.64139 12.2373 5.17821 12.539L5.077 12.605C4.68951 12.8576 4.30229 13.1118 3.92694 13.3786Z" fill="#246DFF"/>
</svg>
