<svg width="13" height="14" viewBox="0 0 13 14" fill="none" xmlns="http://www.w3.org/2000/svg">
<path d="M2.83603 1.4818C3.12926 1.20458 3.1435 0.750997 2.77547 0.615229C2.55262 0.533021 2.31229 0.494111 2.06819 0.500721C1.82409 0.507331 1.581 0.559331 1.3528 0.653753C1.12461 0.748174 0.915776 0.883168 0.738228 1.05103C0.560679 1.21888 0.417892 1.41632 0.31802 1.63206C0.218147 1.8478 0.163145 2.07762 0.156153 2.3084C0.149162 2.53918 0.190318 2.76639 0.277272 2.97707C0.420878 3.32502 0.900642 3.31155 1.19387 3.03433L2.83603 1.4818Z" fill="#246DFF"/>
<path fill-rule="evenodd" clip-rule="evenodd" d="M6.5 13.5C10.0899 13.5 13 10.7487 13 7.35476C13 3.96084 10.0899 1.20952 6.5 1.20952C2.91015 1.20952 0 3.96084 0 7.35476C0 10.7487 2.91015 13.5 6.5 13.5ZM7.04167 3.94074C7.04167 3.65791 6.79915 3.42864 6.5 3.42864C6.20085 3.42864 5.95833 3.65791 5.95833 3.94074V8.03756C5.95833 8.32039 6.20085 8.54967 6.5 8.54967H9.38889C9.68804 8.54967 9.93056 8.32039 9.93056 8.03756C9.93056 7.75474 9.68804 7.52546 9.38889 7.52546H7.04167V3.94074Z" fill="#246DFF"/>
<path d="M10.2277 0.615229C9.85963 0.750997 9.87387 1.20458 10.1671 1.4818L11.8093 3.03433C12.1025 3.31155 12.5823 3.32502 12.7259 2.97707C12.8128 2.76639 12.854 2.53918 12.847 2.3084C12.84 2.07762 12.785 1.8478 12.6851 1.63206C12.5852 1.41632 12.4425 1.21888 12.2649 1.05103C12.0874 0.883168 11.8785 0.748174 11.6503 0.653753C11.4221 0.559331 11.179 0.507331 10.9349 0.500721C10.6908 0.494111 10.4505 0.533021 10.2277 0.615229Z" fill="#246DFF"/>
</svg>
