<svg width="14" height="14" viewBox="0 0 14 14" fill="none" xmlns="http://www.w3.org/2000/svg">
<path fill-rule="evenodd" clip-rule="evenodd" d="M9.975 0.5H4.025V2.55263C4.025 2.83604 3.78995 3.06579 3.5 3.06579C3.21005 3.06579 2.975 2.83604 2.975 2.55263V0.5H2.8C1.2536 0.5 0 1.72533 0 3.23684V10.7632C0 12.2747 1.2536 13.5 2.8 13.5H11.2C12.7464 13.5 14 12.2747 14 10.7632V3.23684C14 1.72533 12.7464 0.5 11.2 0.5H11.025V2.55263C11.025 2.83604 10.7899 3.06579 10.5 3.06579C10.2101 3.06579 9.975 2.83604 9.975 2.55263V0.5ZM3.5 5.97368C3.8866 5.97368 4.2 5.66735 4.2 5.28947C4.2 4.91159 3.8866 4.60526 3.5 4.60526C3.1134 4.60526 2.8 4.91159 2.8 5.28947C2.8 5.66735 3.1134 5.97368 3.5 5.97368ZM7.7 5.28947C7.7 5.66735 7.3866 5.97368 7 5.97368C6.6134 5.97368 6.3 5.66735 6.3 5.28947C6.3 4.91159 6.6134 4.60526 7 4.60526C7.3866 4.60526 7.7 4.91159 7.7 5.28947ZM10.5 5.97368C10.8866 5.97368 11.2 5.66735 11.2 5.28947C11.2 4.91159 10.8866 4.60526 10.5 4.60526C10.1134 4.60526 9.8 4.91159 9.8 5.28947C9.8 5.66735 10.1134 5.97368 10.5 5.97368ZM4.2 7.68421C4.2 8.06209 3.8866 8.36842 3.5 8.36842C3.1134 8.36842 2.8 8.06209 2.8 7.68421C2.8 7.30633 3.1134 7 3.5 7C3.8866 7 4.2 7.30633 4.2 7.68421ZM7 8.36842C7.3866 8.36842 7.7 8.06209 7.7 7.68421C7.7 7.30633 7.3866 7 7 7C6.6134 7 6.3 7.30633 6.3 7.68421C6.3 8.06209 6.6134 8.36842 7 8.36842ZM11.2 7.68421C11.2 8.06209 10.8866 8.36842 10.5 8.36842C10.1134 8.36842 9.8 8.06209 9.8 7.68421C9.8 7.30633 10.1134 7 10.5 7C10.8866 7 11.2 7.30633 11.2 7.68421ZM3.5 10.7632C3.8866 10.7632 4.2 10.4568 4.2 10.0789C4.2 9.70107 3.8866 9.39474 3.5 9.39474C3.1134 9.39474 2.8 9.70107 2.8 10.0789C2.8 10.4568 3.1134 10.7632 3.5 10.7632ZM7.7 10.0789C7.7 10.4568 7.3866 10.7632 7 10.7632C6.6134 10.7632 6.3 10.4568 6.3 10.0789C6.3 9.70107 6.6134 9.39474 7 9.39474C7.3866 9.39474 7.7 9.70107 7.7 10.0789ZM10.5 10.7632C10.8866 10.7632 11.2 10.4568 11.2 10.0789C11.2 9.70107 10.8866 9.39474 10.5 9.39474C10.1134 9.39474 9.8 9.70107 9.8 10.0789C9.8 10.4568 10.1134 10.7632 10.5 10.7632Z" fill="#246DFF"/>
</svg>
