<svg width="18" height="18" viewBox="0 0 18 18" fill="none" xmlns="http://www.w3.org/2000/svg">
<path d="M1.58786 8.44045C1.58786 3.77811 5.26263 0 9.79393 0C14.3252 0 18 3.77811 18 8.44045V8.75959C18 9.34995 17.9446 9.92298 17.8394 10.4746C17.0474 7.70428 14.5571 5.68404 11.6111 5.68404C8.02847 5.68404 5.11982 8.67163 5.11982 12.3626V12.5503C5.11982 14.3081 5.74626 15.8694 6.7559 17.0577C6.72742 17.0478 6.69894 17.0377 6.67047 17.0275L6.09222 16.8194L4.78413 16.5704C2.91609 16.3283 1.67617 15.9334 0.946024 15.512C0.598749 15.3115 0.266709 15.0487 0.103256 14.7021C0.01357 14.5119 -0.0420729 14.256 0.0401071 13.9826C0.122412 13.7087 0.308771 13.531 0.485547 13.4288C1.24149 12.9918 1.58441 12.4933 1.74531 12.1409C1.82774 11.9604 1.86645 11.809 1.88454 11.7107C1.89182 11.6711 1.89571 11.6404 1.89777 11.6202L1.58786 8.47642V8.44045Z" fill="#246DFF"/>
<path fill-rule="evenodd" clip-rule="evenodd" d="M16.7223 12.3986L16.542 14.2274L16.5428 14.2318C16.5496 14.2687 16.5656 14.3338 16.6027 14.4149C16.6727 14.5683 16.8338 14.8153 17.2257 15.0418C17.3759 15.1287 17.5449 15.2862 17.62 15.5362C17.695 15.7857 17.6424 16.0139 17.567 16.1737C17.4322 16.4595 17.1741 16.6508 16.9546 16.7775C16.4805 17.0512 15.7124 17.2895 14.6017 17.4341L13.8617 17.575L13.5421 17.69C10.1015 18.9285 6.49984 16.3024 6.49984 12.5503V12.3626C6.49984 9.45812 8.789 7.10505 11.6111 7.10505C14.4331 7.10505 16.7223 9.45812 16.7223 12.3626V12.3986ZM9.53593 13.7364C9.91701 13.7364 10.2259 13.4183 10.2259 13.0259C10.2259 12.6335 9.91701 12.3154 9.53593 12.3154C9.15485 12.3154 8.84592 12.6335 8.84592 13.0259C8.84592 13.4183 9.15485 13.7364 9.53593 13.7364ZM11.836 13.7364C12.217 13.7364 12.526 13.4183 12.526 13.0259C12.526 12.6335 12.217 12.3154 11.836 12.3154C11.4549 12.3154 11.1459 12.6335 11.1459 13.0259C11.1459 13.4183 11.4549 13.7364 11.836 13.7364ZM14.826 13.0259C14.826 13.4183 14.5171 13.7364 14.136 13.7364C13.7549 13.7364 13.446 13.4183 13.446 13.0259C13.446 12.6335 13.7549 12.3154 14.136 12.3154C14.5171 12.3154 14.826 12.6335 14.826 13.0259Z" fill="#246DFF"/>
</svg>
