<svg width="20" height="18" viewBox="0 0 20 18" fill="none" xmlns="http://www.w3.org/2000/svg">
<path fill-rule="evenodd" clip-rule="evenodd" d="M4.75019 0C2.01029 0 -0.161471 2.31173 0.0094396 5.0463L0.50944 13.0463C0.556635 13.8014 0.779051 14.5079 1.13605 15.1254C1.95904 16.5489 3.49872 17.5 5.25019 17.5H13.7883C15.538 17.5 17.0788 16.5502 17.9024 15.1253C17.9233 15.0892 17.9412 15.0514 17.9558 15.0122L19.0751 12.0129C19.4019 11.1372 19.2897 10.2352 18.8778 9.50912C18.9076 9.42836 18.9238 9.34108 18.9238 9.25V7.91895C19.1111 5.26232 17.0062 3 14.3388 3H11.9924C11.5782 3 11.2424 2.66421 11.2424 2.25C11.2424 1.00736 10.235 0 8.99238 0H4.75019ZM12.5129 8C12.1803 8 11.9273 7.70136 11.982 7.3733C12.1891 6.13094 11.231 5 9.97153 5H6.79067C4.51688 5 2.56443 6.61697 2.14075 8.85094L1.90344 10.1022L1.84543 10.3753L1.50652 4.95273C1.38958 3.08171 2.87552 1.5 4.75019 1.5H8.99238C9.4066 1.5 9.74238 1.83579 9.74238 2.25C9.74238 3.49264 10.7497 4.5 11.9924 4.5H14.3388C16.1424 4.5 17.5644 6.0355 17.426 7.83386C17.4246 7.853 17.4238 7.87219 17.4238 7.89138V8.22168C17.078 8.07939 16.6963 8 16.2901 8H12.5129Z" fill="white"/>
</svg>
