<svg width="21" height="18" viewBox="0 0 21 18" fill="none" xmlns="http://www.w3.org/2000/svg">
<path d="M7.52101 0.482492C7.29125 0.137846 6.82559 0.0447151 6.48095 0.274479C6.1363 0.504244 6.04317 0.969896 6.27293 1.31454C6.40461 1.51206 6.59285 1.86751 6.70132 2.24377C6.81616 2.64212 6.80002 2.91537 6.72615 3.06311C6.47736 3.56069 6.33698 4.14556 6.25664 4.64096C6.17512 5.1437 6.14697 5.60886 6.14697 5.89852C6.14697 6.31273 6.48276 6.64852 6.89697 6.64852C7.31119 6.64852 7.64697 6.31273 7.64697 5.89852C7.64697 5.68817 7.66883 5.30333 7.7373 4.88107C7.80697 4.45148 7.91658 4.03635 8.06779 3.73393C8.39392 3.08167 8.29445 2.35492 8.14262 1.82826C7.98443 1.27952 7.72267 0.784977 7.52101 0.482492Z" fill="#246DFF"/>
<path d="M18.897 15.8985C18.897 11.4802 15.3153 7.89852 10.897 7.89852C6.47869 7.89852 2.89697 11.4802 2.89697 15.8985H1.64697C1.23276 15.8985 0.896973 16.2343 0.896973 16.6485C0.896973 17.0627 1.23276 17.3985 1.64697 17.3985H20.147C20.5612 17.3985 20.897 17.0627 20.897 16.6485C20.897 16.2343 20.5612 15.8985 20.147 15.8985H18.897Z" fill="#246DFF"/>
<path d="M10.4809 0.274479C10.8256 0.0447151 11.2912 0.137846 11.521 0.482492C11.7227 0.784977 11.9844 1.27952 12.1426 1.82826C12.2945 2.35492 12.3939 3.08167 12.0678 3.73393C11.9166 4.03635 11.807 4.45148 11.7373 4.88107C11.6688 5.30333 11.647 5.68817 11.647 5.89852C11.647 6.31273 11.3112 6.64852 10.897 6.64852C10.4828 6.64852 10.147 6.31273 10.147 5.89852C10.147 5.60886 10.1751 5.1437 10.2566 4.64096C10.337 4.14556 10.4774 3.56069 10.7262 3.06311C10.8 2.91537 10.8162 2.64212 10.7013 2.24377C10.5929 1.86751 10.4046 1.51206 10.2729 1.31454C10.0432 0.969896 10.1363 0.504244 10.4809 0.274479Z" fill="#246DFF"/>
<path d="M15.521 0.482492C15.2912 0.137846 14.8256 0.0447151 14.4809 0.274479C14.1363 0.504244 14.0432 0.969896 14.2729 1.31454C14.4046 1.51206 14.5929 1.86751 14.7013 2.24377C14.8162 2.64212 14.8 2.91537 14.7262 3.06311C14.4774 3.56069 14.337 4.14556 14.2566 4.64096C14.1751 5.1437 14.147 5.60886 14.147 5.89852C14.147 6.31273 14.4828 6.64852 14.897 6.64852C15.3112 6.64852 15.647 6.31273 15.647 5.89852C15.647 5.68817 15.6688 5.30333 15.7373 4.88107C15.807 4.45148 15.9166 4.03635 16.0678 3.73393C16.3939 3.08167 16.2945 2.35492 16.1426 1.82826C15.9844 1.27952 15.7227 0.784977 15.521 0.482492Z" fill="#246DFF"/>
</svg>
