<svg width="21" height="17" viewBox="0 0 21 17" fill="none" xmlns="http://www.w3.org/2000/svg">
<path d="M17.1293 8.19884C17.6885 7.78053 18.083 7.39032 18.3363 7.0563C17.6574 3.32616 14.3919 0.498047 10.4658 0.498047C6.04754 0.498047 2.46582 4.07977 2.46582 8.49805C2.46582 9.44044 2.62877 10.3448 2.92802 11.1844C3.31441 11.3472 3.85144 11.488 4.54528 11.5707C6.24801 11.7738 8.58257 11.5908 11.1128 10.9128C13.643 10.2348 15.7563 9.22608 17.1293 8.19884Z" fill="#246DFF"/>
<path d="M11.8892 13.8106C14.2204 13.1859 16.3305 12.2858 17.9805 11.2485C16.8589 14.3118 13.9177 16.498 10.4658 16.498C8.51386 16.498 6.72519 15.799 5.3365 14.6375C7.28321 14.7104 9.55942 14.4348 11.8892 13.8106Z" fill="#246DFF"/>
<path d="M1.53108 10.8922C1.45841 10.621 1.50531 10.2488 1.80674 9.76334C1.7468 9.34986 1.71582 8.92734 1.71582 8.498C1.71582 8.1796 1.73283 7.86518 1.76598 7.55558C1.33397 7.93971 0.967214 8.33818 0.682052 8.74555C0.147426 9.50929 -0.15593 10.3917 0.082195 11.2804C0.29571 12.0773 0.886196 12.6541 1.61195 13.0466C2.33579 13.438 3.25541 13.6829 4.279 13.805C6.33063 14.0497 8.95939 13.8193 11.6953 13.0863C14.4312 12.3532 16.8229 11.2383 18.4774 10.0006C19.3028 9.38305 19.9767 8.71109 20.4079 8.01021C20.8402 7.30747 21.0631 6.51265 20.8496 5.7158C20.6219 4.86586 19.9669 4.26768 19.173 3.87354C18.6958 3.63669 18.1402 3.4578 17.5285 3.33179C17.883 3.81567 18.189 4.3373 18.4392 4.88947L18.6129 5.27258C19.1068 5.54079 19.3287 5.83546 19.4007 6.10403C19.4731 6.37411 19.4278 6.74057 19.1303 7.22426C18.8316 7.70981 18.314 8.24945 17.5788 8.79949C16.1119 9.89689 13.9058 10.941 11.3071 11.6374C8.7083 12.3337 6.27567 12.5325 4.45664 12.3156C3.5449 12.2068 2.82687 11.9983 2.32542 11.7271C1.82589 11.457 1.60345 11.1623 1.53108 10.8922Z" fill="#246DFF"/>
</svg>
