<svg width="20" height="20" viewBox="0 0 20 20" fill="none" xmlns="http://www.w3.org/2000/svg">
<path fill-rule="evenodd" clip-rule="evenodd" d="M0 13.3333C0 5.96954 5.96954 0 13.3333 0H18C19.1046 0 20 0.895431 20 2V4H17C15.8954 4 15 4.89543 15 6V11C15 12.1046 15.8954 13 17 13H20V18C20 19.1046 19.1046 20 18 20H6.66667C2.98477 20 0 17.0152 0 13.3333ZM4 11.7143C4 7.4538 7.4538 4 11.7143 4H12.5714C13.3604 4 14 4.63959 14 5.42857V11C14 12.1046 13.1046 13 12 13H5.28571C4.57563 13 4 12.4244 4 11.7143ZM5 14.25C4.58579 14.25 4.25 14.5858 4.25 15C4.25 15.4142 4.58579 15.75 5 15.75H11C11.4142 15.75 11.75 15.4142 11.75 15C11.75 14.5858 11.4142 14.25 11 14.25H5ZM15.25 15C15.25 14.5858 15.5858 14.25 16 14.25H19C19.4142 14.25 19.75 14.5858 19.75 15C19.75 15.4142 19.4142 15.75 19 15.75H16C15.5858 15.75 15.25 15.4142 15.25 15Z" fill="#246DFF"/>
</svg>
