<svg width="14" height="14" viewBox="0 0 14 14" fill="none" xmlns="http://www.w3.org/2000/svg">
<path d="M7.62903 1.12903C7.62903 0.781627 7.3474 0.5 7 0.5C6.6526 0.5 6.37097 0.781627 6.37097 1.12903V6.37097H1.12903C0.781627 6.37097 0.5 6.6526 0.5 7C0.5 7.3474 0.781627 7.62903 1.12903 7.62903H6.37097V12.871C6.37097 13.2184 6.6526 13.5 7 13.5C7.3474 13.5 7.62903 13.2184 7.62903 12.871V7.62903H12.871C13.2184 7.62903 13.5 7.3474 13.5 7C13.5 6.6526 13.2184 6.37097 12.871 6.37097H7.62903V1.12903Z" fill="white"/>
</svg>
