<svg width="18" height="19" viewBox="0 0 18 19" fill="none" xmlns="http://www.w3.org/2000/svg">
<path d="M5.71911 2.27962L5.84463 2.35494C6.12776 2.52483 6.92696 2.80542 8.02707 2.88764C9.09406 2.96738 10.3708 2.85393 11.6257 2.3247C11.8192 2.21537 12.0474 2.09536 12.3001 1.97342L12.9586 -0.00195312L10.9584 0.998047L8.95858 -0.00195312L6.95875 0.998047L4.95858 -0.00195312L5.71911 2.27962Z" fill="#246DFF"/>
<path d="M8.2385 9.27005C7.86186 9.3677 7.58374 9.70992 7.58374 10.1171C7.58374 10.5243 7.86186 10.8665 8.2385 10.9641V9.27005Z" fill="#246DFF"/>
<path d="M9.4885 13.9916C9.95797 13.9759 10.3337 13.5904 10.3337 13.1171C10.3337 12.6438 9.95797 12.2583 9.4885 12.2426V13.9916Z" fill="#246DFF"/>
<path fill-rule="evenodd" clip-rule="evenodd" d="M12.8059 3.3961C12.6291 3.48449 12.4688 3.57042 12.3308 3.64925C12.306 3.66342 12.2804 3.67617 12.2542 3.68742C10.721 4.34447 9.17927 4.47793 7.91528 4.38347C6.67374 4.29068 5.623 3.97127 5.07285 3.64116L4.88485 3.52835C-0.726697 6.95009 -1.88078 18.5268 8.95858 18.998C19.9422 18.5205 18.611 6.63996 12.8059 3.3961ZM8.8635 7.37305C9.20868 7.37305 9.4885 7.65287 9.4885 7.99805V8.00467C10.6658 8.12671 11.5837 9.12184 11.5837 10.3314C11.5837 10.6766 11.3039 10.9564 10.9587 10.9564C10.6136 10.9564 10.3337 10.6766 10.3337 10.3314C10.3337 9.81369 9.9726 9.38034 9.4885 9.26954V10.9923C10.6484 11.0082 11.5837 11.9534 11.5837 13.1171C11.5837 14.2808 10.6484 15.226 9.48848 15.2419C9.48539 15.5844 9.20676 15.8611 8.8635 15.8611C8.51832 15.8611 8.2385 15.5813 8.2385 15.2361V15.2018C7.15418 14.9981 6.33374 14.0463 6.33374 12.9028C6.33374 12.5576 6.61356 12.2778 6.95874 12.2778C7.30392 12.2778 7.58374 12.5576 7.58374 12.9028C7.58374 13.3499 7.85315 13.7342 8.2385 13.902V12.2308C7.16838 12.1206 6.33374 11.2163 6.33374 10.1171C6.33374 9.01786 7.16838 8.11356 8.2385 8.00337V7.99805C8.2385 7.65287 8.51832 7.37305 8.8635 7.37305Z" fill="#246DFF"/>
<path d="M13.7345 2.98114C14.3156 2.75142 14.9233 2.5683 15.4582 2.50071C16.0163 2.43018 16.3627 2.50198 16.5429 2.62209C16.8875 2.85186 17.3532 2.75873 17.583 2.41408C17.8127 2.06943 17.7196 1.60378 17.3749 1.37402C16.7445 0.953727 15.9532 0.926222 15.2701 1.01254C14.5638 1.1018 13.8268 1.3317 13.183 1.58619C12.7978 1.73848 12.609 2.1742 12.7613 2.5594C12.9135 2.9446 13.3493 3.13343 13.7345 2.98114Z" fill="#246DFF"/>
</svg>
