<svg width="23" height="23" viewBox="0 0 23 23" fill="none" xmlns="http://www.w3.org/2000/svg">
<path fill-rule="evenodd" clip-rule="evenodd" d="M6.70573 3.83333C5.11791 3.83333 3.83073 5.12051 3.83073 6.70833V16.2917C3.83073 17.8795 5.11791 19.1667 6.70573 19.1667H16.2891C17.8769 19.1667 19.1641 17.8795 19.1641 16.2917V10.5417C19.1641 10.0124 19.5931 9.58333 20.1224 9.58333C20.6517 9.58333 21.0807 10.0124 21.0807 10.5417V16.2917C21.0807 18.938 18.9354 21.0833 16.2891 21.0833H6.70573C4.05937 21.0833 1.91406 18.938 1.91406 16.2917V6.70833C1.91406 4.06197 4.05937 1.91666 6.70573 1.91666H12.4557C12.985 1.91666 13.4141 2.34572 13.4141 2.875C13.4141 3.40427 12.985 3.83333 12.4557 3.83333H6.70573Z" fill="white"/>
<path fill-rule="evenodd" clip-rule="evenodd" d="M18.3949 3.83333C18.1909 3.83333 17.9952 3.91437 17.851 4.05863L10.3021 11.6075L9.93952 13.0579L11.39 12.6953L18.9388 5.14645C19.083 5.0022 19.1641 4.80655 19.1641 4.60254C19.1641 4.39853 19.083 4.20288 18.9388 4.05863C18.7945 3.91437 18.5989 3.83333 18.3949 3.83333ZM16.4957 2.70334C16.9994 2.19964 17.6825 1.91666 18.3949 1.91666C19.1072 1.91666 19.7904 2.19964 20.2941 2.70334C20.7978 3.20704 21.0807 3.8902 21.0807 4.60254C21.0807 5.31488 20.7978 5.99804 20.2941 6.50174L12.5575 14.2383C12.4347 14.3611 12.2808 14.4482 12.1123 14.4903L8.85485 15.3047C8.52827 15.3864 8.1828 15.2907 7.94477 15.0526C7.70674 14.8146 7.61105 14.4691 7.6927 14.1426L8.50707 10.8851C8.54919 10.7166 8.63632 10.5627 8.75914 10.4399L16.4957 2.70334Z" fill="white"/>
<path fill-rule="evenodd" clip-rule="evenodd" d="M14.6557 5.07235C15.0299 4.6981 15.6367 4.6981 16.011 5.07235L17.9276 6.98902C18.3019 7.36327 18.3019 7.97006 17.9276 8.34431C17.5534 8.71856 16.9466 8.71856 16.5724 8.34431L14.6557 6.42764C14.2814 6.05339 14.2814 5.44661 14.6557 5.07235Z" fill="white"/>
</svg>
