<svg width="18" height="18" viewBox="0 0 18 18" fill="none" xmlns="http://www.w3.org/2000/svg">
<path fill-rule="evenodd" clip-rule="evenodd" d="M17.9994 2.7281C17.9827 1.22016 16.8024 0.0299688 15.2956 0.00165157C13.3079 -0.0357045 10.4854 0.552517 7.36394 2.59604C7.08527 2.45227 6.77028 2.36708 6.44926 2.32684C5.91733 2.26017 5.30972 2.3081 4.67104 2.46744C3.40024 2.7845 1.94314 3.55776 0.587709 4.89378C0.287547 5.13476 0.0754528 5.49259 0.01633 5.87566C-0.0493165 6.30101 0.0760151 6.79558 0.519057 7.12382C0.926012 7.42533 1.48237 7.49594 2.10035 7.41929L2.13769 7.41449C1.82076 7.88455 1.60076 8.35427 1.59554 8.80897C1.59263 9.06307 1.65722 9.30956 1.80093 9.52596C1.94071 9.73646 2.1295 9.87984 2.31709 9.97771C2.67336 10.1636 3.11185 10.2294 3.51018 10.2564C4.04864 10.2929 4.71815 10.2638 5.33832 10.2369C5.62548 10.2245 5.90211 10.2125 6.15025 10.2077C6.5711 10.1995 6.92742 10.2092 7.20406 10.2512C7.4943 10.2952 7.58129 10.3591 7.58649 10.3629C7.59019 10.368 7.65309 10.4551 7.69485 10.7461C7.73462 11.0232 7.74163 11.3798 7.73023 11.8009C7.7235 12.0491 7.70939 12.3259 7.69474 12.6131C7.66311 13.2335 7.62895 13.9032 7.66126 14.4423C7.68516 14.841 7.74758 15.2803 7.93058 15.6382C8.02694 15.8267 8.16877 16.0167 8.37805 16.1582C8.59319 16.3037 8.83902 16.3702 9.09296 16.3692C9.55273 16.3675 10.0296 16.1458 10.5073 15.8263C10.5043 15.8471 10.5014 15.8677 10.4987 15.8881C10.4174 16.5058 10.4837 17.0631 10.7818 17.4726C11.1065 17.9185 11.5997 18.0477 12.0253 17.9853C12.4085 17.929 12.7677 17.7196 13.0109 17.4211C14.3564 16.075 15.1403 14.6229 15.4669 13.3538C15.631 12.7159 15.6836 12.1083 15.6211 11.5755C15.5825 11.2468 15.4969 10.924 15.3495 10.6394C17.4117 7.53529 18.0215 4.71882 17.9994 2.7281ZM4.99959 3.78605C5.32984 3.70366 5.62869 3.6641 5.88861 3.65762C5.21718 4.18526 4.53654 4.78233 3.8515 5.45635C2.98257 5.84418 2.36001 6.01771 1.9333 6.07063C1.6031 6.11159 1.43695 6.07543 1.36779 6.05046C1.38178 6.01505 1.40884 5.97506 1.44188 5.95044C1.46758 5.9313 1.49188 5.91037 1.51462 5.88779C2.72168 4.68939 3.97898 4.04069 4.99959 3.78605ZM11.8452 16.0656C11.9013 15.639 12.0795 15.0174 12.4738 14.1509C13.1526 13.4706 13.7545 12.7941 14.2869 12.1263C14.2784 12.3863 14.2366 12.6851 14.1517 13.0149C13.8894 14.0342 13.2315 15.2873 12.0247 16.4859C12.0019 16.5085 11.9808 16.5327 11.9615 16.5582C11.9366 16.5911 11.8965 16.6179 11.861 16.6316C11.8366 16.5622 11.8017 16.3957 11.8452 16.0656ZM11.9244 6.05468C12.6289 6.76501 13.7754 6.76942 14.4852 6.06453C15.1951 5.35963 15.1995 4.21236 14.4951 3.50203C13.7906 2.7917 12.6441 2.78729 11.9343 3.49219C11.2244 4.19708 11.22 5.34435 11.9244 6.05468Z" fill="#246DFF"/>
<path d="M5.11438 10.6852C6.29124 10.6897 7.24161 11.648 7.23709 12.8257C7.2334 13.7872 6.58702 14.6274 5.65897 14.8768L4.48886 15.1913C3.41384 15.4803 2.43225 14.4904 2.72925 13.417L3.05253 12.2485C3.30893 11.3218 4.15345 10.6815 5.11438 10.6852Z" fill="#246DFF"/>
</svg>
