<svg width="16" height="12" viewBox="0 0 16 12" fill="none" xmlns="http://www.w3.org/2000/svg">
<path fill-rule="evenodd" clip-rule="evenodd" d="M3.2 0H12.8C14.5673 0 16 1.34315 16 3V9C16 10.6569 14.5673 12 12.8 12H3.2C1.43269 12 0 10.6569 0 9V3C0 1.34315 1.43269 0 3.2 0ZM3.68 1.9125C3.48118 1.66397 3.1051 1.6136 2.84 1.8C2.5749 1.9864 2.52118 2.33897 2.72 2.5875L4.96 5.3875C6.48 7.2875 9.52 7.2875 11.04 5.3875L13.28 2.5875C13.4788 2.33897 13.4251 1.9864 13.16 1.8C12.8949 1.6136 12.5188 1.66397 12.32 1.9125L10.08 4.7125C9.04 6.0125 6.96 6.0125 5.92 4.7125L3.68 1.9125Z" fill="#246DFF"/>
</svg>
