<svg width="13" height="15" viewBox="0 0 13 15" fill="none" xmlns="http://www.w3.org/2000/svg">
<path d="M9.38889 0H10.8333C12.03 0 13 1.00736 13 2.25V12.75C13 13.9926 12.03 15 10.8333 15H9.38889C8.19227 15 7.22222 13.9926 7.22222 12.75V2.25C7.22222 1.00736 8.19227 0 9.38889 0Z" fill="#363538"/>
<path d="M2.16667 4.5H3.61111C4.80773 4.5 5.77778 5.50736 5.77778 6.75V12.75C5.77778 13.9926 4.80773 15 3.61111 15H2.16667C0.97005 15 0 13.9926 0 12.75V6.75C0 5.50736 0.97005 4.5 2.16667 4.5Z" fill="#363538"/>
</svg>
