<svg width="21" height="20" viewBox="0 0 21 20" fill="none" xmlns="http://www.w3.org/2000/svg">
<path d="M4.80397 6.71399C3.51537 7.07571 2.09696 6.53673 1.39699 5.32435C0.56856 3.88948 1.06019 2.0547 2.49506 1.22628C3.92994 0.39785 5.76471 0.889476 6.59314 2.32435C7.29311 3.53673 7.05067 5.03461 6.09311 5.96971C6.11162 5.99422 6.12883 6.02014 6.14458 6.04743L8.14458 9.51153C8.24126 9.67898 8.26603 9.86821 8.22847 10.0435C9.06306 9.74825 9.96126 9.58761 10.897 9.58761C15.3153 9.58761 18.897 13.1693 18.897 17.5876H20.147C20.5612 17.5876 20.897 17.9234 20.897 18.3376C20.897 18.7518 20.5612 19.0876 20.147 19.0876H1.64697C1.23276 19.0876 0.896973 18.7518 0.896973 18.3376C0.896973 17.9234 1.23276 17.5876 1.64697 17.5876H2.89697C2.89697 14.5363 4.60528 11.8839 7.11767 10.5348C7.00821 10.4712 6.91338 10.379 6.84554 10.2615L4.84554 6.79743C4.82979 6.77014 4.81595 6.74228 4.80397 6.71399Z" fill="#246DFF"/>
</svg>
