<svg width="15" height="15" viewBox="0 0 15 15" fill="none" xmlns="http://www.w3.org/2000/svg">
<path fill-rule="evenodd" clip-rule="evenodd" d="M2.5 8.125C2.5 6.74429 3.61929 5.625 5 5.625H10C11.3807 5.625 12.5 6.74429 12.5 8.125V11.25C12.5 12.6307 11.3807 13.75 10 13.75H5C3.61929 13.75 2.5 12.6307 2.5 11.25V8.125ZM5 6.875C4.30964 6.875 3.75 7.43464 3.75 8.125V11.25C3.75 11.9404 4.30964 12.5 5 12.5H10C10.6904 12.5 11.25 11.9404 11.25 11.25V8.125C11.25 7.43464 10.6904 6.875 10 6.875H5Z" fill="#246DFF"/>
<path fill-rule="evenodd" clip-rule="evenodd" d="M5 3.75C5 2.36929 6.11929 1.25 7.5 1.25C8.88071 1.25 10 2.36929 10 3.75V4.0625C10 4.40768 9.72018 4.6875 9.375 4.6875C9.02982 4.6875 8.75 4.40768 8.75 4.0625V3.75C8.75 3.05964 8.19036 2.5 7.5 2.5C6.80964 2.5 6.25 3.05964 6.25 3.75V6.25C6.25 6.59518 5.97018 6.875 5.625 6.875C5.27982 6.875 5 6.59518 5 6.25V3.75Z" fill="#246DFF"/>
</svg>
