<svg width="28" height="28" viewBox="0 0 28 28" fill="none" xmlns="http://www.w3.org/2000/svg">
<path fill-rule="evenodd" clip-rule="evenodd" d="M28 14C28 8.76615 28 6.14923 26.8746 4.2C26.1374 2.92304 25.077 1.86264 23.8 1.12539C21.8508 0 19.2339 0 14 0C8.76615 0 6.14923 0 4.2 1.12539C2.92304 1.86264 1.86264 2.92304 1.12539 4.2C0 6.14923 0 8.76615 0 14C0 19.2339 0 21.8508 1.12539 23.8C1.86264 25.077 2.92304 26.1374 4.2 26.8746C6.14923 28 8.76615 28 14 28C19.2339 28 21.8508 28 23.8 26.8746C25.077 26.1374 26.1374 25.077 26.8746 23.8C28 21.8508 28 19.2339 28 14ZM11.8575 18.8575C11.4475 19.2676 11.4475 19.9324 11.8575 20.3425C12.2676 20.7525 12.9324 20.7525 13.3425 20.3425L16.9626 16.7224C18.4661 15.2188 18.4661 12.7812 16.9626 11.2776L13.3425 7.65754C12.9324 7.24749 12.2676 7.24749 11.8575 7.65754C11.4475 8.06759 11.4475 8.73241 11.8575 9.14246L15.4776 12.7626C16.1611 13.446 16.1611 14.554 15.4776 15.2374L11.8575 18.8575Z" fill="#246DFF"/>
</svg>
