<svg width="23" height="23" viewBox="0 0 23 23" fill="none" xmlns="http://www.w3.org/2000/svg">
<path fill-rule="evenodd" clip-rule="evenodd" d="M1.91406 6.70833C1.91406 4.06197 4.05936 1.91666 6.70573 1.91666H16.2891C18.9354 1.91666 21.0807 4.06197 21.0807 6.70833V16.2917C21.0807 18.938 18.9354 21.0833 16.2891 21.0833H6.70573C4.05936 21.0833 1.91406 18.938 1.91406 16.2917V6.70833ZM6.70573 3.83333C5.11791 3.83333 3.83073 5.12051 3.83073 6.70833V16.2917C3.83073 17.8795 5.11791 19.1667 6.70573 19.1667H16.2891C17.8769 19.1667 19.1641 17.8795 19.1641 16.2917V6.70833C19.1641 5.12051 17.8769 3.83333 16.2891 3.83333H6.70573Z" fill="white"/>
<path fill-rule="evenodd" clip-rule="evenodd" d="M11.4974 7.66667C10.4388 7.66667 9.58073 8.52479 9.58073 9.58333C9.58073 10.6419 10.4388 11.5 11.4974 11.5C12.5559 11.5 13.4141 10.6419 13.4141 9.58333C13.4141 8.52479 12.5559 7.66667 11.4974 7.66667ZM7.66406 9.58333C7.66406 7.46624 9.3803 5.75 11.4974 5.75C13.6145 5.75 15.3307 7.46624 15.3307 9.58333C15.3307 11.7004 13.6145 13.4167 11.4974 13.4167C9.3803 13.4167 7.66406 11.7004 7.66406 9.58333Z" fill="white"/>
<path fill-rule="evenodd" clip-rule="evenodd" d="M11.4989 16.2917C9.04828 16.2917 6.95344 17.8251 6.12613 19.9882L4.33594 19.3035C5.43761 16.4231 8.22788 14.375 11.4989 14.375C14.7699 14.375 17.5602 16.4231 18.6618 19.3035L16.8716 19.9882C16.0443 17.8251 13.9495 16.2917 11.4989 16.2917Z" fill="white"/>
</svg>
