<svg width="19" height="19" viewBox="0 0 19 19" fill="none" xmlns="http://www.w3.org/2000/svg">
<path d="M15.0698 10.786C14.2728 10.3305 13.3008 10.3035 12.4798 10.7141L12.0851 10.9114C10.6577 11.6251 8.97757 11.6251 7.55019 10.9114L7.15547 10.7141C6.33441 10.3035 5.36249 10.3305 4.56545 10.786L4.25498 10.9634C3.69827 11.2815 3.08065 11.4418 2.4633 11.4464L2.90184 15.174C3.13883 17.1885 4.8461 18.7067 6.87444 18.7067L7.06742 18.7067V15.7067C7.06742 14.1879 8.29864 12.9567 9.81742 12.9567C11.3362 12.9567 12.5674 14.1879 12.5674 15.7067V18.7067L13.2604 18.7067C15.2888 18.7067 16.9961 17.1885 17.233 15.174L17.6752 11.4156C16.8956 11.5174 16.0886 11.3682 15.3803 10.9634L15.0698 10.786Z" fill="#246DFF"/>
<path d="M11.0674 18.7067V15.7067C11.0674 15.0163 10.5078 14.4567 9.81742 14.4567C9.12707 14.4567 8.56742 15.0163 8.56742 15.7067V18.7067H11.0674Z" fill="#246DFF"/>
<path d="M12.0127 0.572504L10.8039 0.371035C10.1508 0.262186 9.48417 0.262186 8.83108 0.371035L7.6071 0.575031L7.56259 1.01913L6.56159 8.64573L6.5611 8.64956L6.51026 9.05303L7.13419 9.365C8.82336 10.2096 10.8116 10.2096 12.5008 9.365L13.1247 9.05303L13.0739 8.64956L13.0734 8.64571L12.0739 1.03051L12.0127 0.572504Z" fill="#246DFF"/>
<path d="M14.6531 9.18411L16.5425 10.2638C17.0175 10.5352 17.605 10.515 18.0602 10.2115C18.5229 9.90301 18.7674 9.35618 18.6888 8.80559L17.9439 3.59187C17.8635 3.02858 17.5469 2.52624 17.0734 2.21061L15.3213 1.04253C14.9928 0.823512 14.6068 0.706636 14.2119 0.706636H13.5439L13.5611 0.835314L14.5616 8.45821L14.6531 9.18411Z" fill="#246DFF"/>
<path d="M4.98188 9.18412L5.07336 8.45819L5.07385 8.45436L6.07236 0.846699L6.0864 0.706636H5.42303C5.02818 0.706636 4.64216 0.823512 4.31363 1.04254L2.56151 2.21061C2.08807 2.52624 1.77148 3.02858 1.69101 3.59187L0.946194 8.8056C0.867539 9.35618 1.11203 9.90301 1.5748 10.2115C2.02996 10.515 2.6175 10.5352 3.09246 10.2638L4.98188 9.18412Z" fill="#246DFF"/>
</svg>
