<svg width="20" height="19" viewBox="0 0 20 19" fill="none" xmlns="http://www.w3.org/2000/svg">
<path fill-rule="evenodd" clip-rule="evenodd" d="M0.750058 12.9662V10.9609C0.750058 10.7704 0.777272 10.581 0.830834 10.3983L0.355295 10.1039C0.00311795 9.88581 -0.105616 9.42355 0.112431 9.07138C0.330478 8.7192 0.792735 8.61047 1.14491 8.82851L1.28889 8.91766L2.87805 3.78345C3.39654 2.10831 4.94564 0.966187 6.69919 0.966187H12.8009C14.5545 0.966187 16.1036 2.10831 16.6221 3.78345L18.2108 8.91639L18.3528 8.82851C18.7049 8.61047 19.1672 8.7192 19.3852 9.07138C19.6033 9.42355 19.4946 9.88581 19.1424 10.1039L18.6689 10.397C18.7227 10.5801 18.7501 10.77 18.7501 10.9609V12.9662C18.7501 13.6408 18.4161 14.2373 17.9045 14.5996C17.9654 14.708 18.0001 14.833 18.0001 14.9662V16.4662C18.0001 17.4327 17.2166 18.2162 16.2501 18.2162H15.2501C14.2836 18.2162 13.5001 17.4327 13.5001 16.4662V14.9662H6.00006V16.4662C6.00006 17.4327 5.21656 18.2162 4.25006 18.2162H3.25006C2.28356 18.2162 1.50006 17.4327 1.50006 16.4662V14.9662C1.50006 14.833 1.53476 14.708 1.59562 14.5996C1.08402 14.2373 0.750058 13.6408 0.750058 12.9662ZM5.5893 5.27007L4.9893 8.27007C4.86554 8.88886 5.33883 9.46619 5.96988 9.46619H13.5303C14.1613 9.46619 14.6346 8.88886 14.5109 8.27007L13.9109 5.27007C13.8174 4.80265 13.407 4.46619 12.9303 4.46619H6.56988C6.0932 4.46619 5.68278 4.80265 5.5893 5.27007ZM6.00006 11.9662C6.00006 11.552 6.33584 11.2162 6.75006 11.2162H12.7501C13.1643 11.2162 13.5001 11.552 13.5001 11.9662C13.5001 12.3804 13.1643 12.7162 12.7501 12.7162H6.75006C6.33584 12.7162 6.00006 12.3804 6.00006 11.9662Z" fill="#246DFF"/>
</svg>
