<svg width="23" height="23" viewBox="0 0 23 23" fill="none" xmlns="http://www.w3.org/2000/svg">
<path d="M20.5547 7.85837C20.6048 8.86476 20.6048 10.0619 20.6048 11.5C20.6048 15.7918 20.6048 17.9377 19.2715 19.2709C17.9383 20.6042 15.7924 20.6042 11.5007 20.6042C7.20891 20.6042 5.06303 20.6042 3.72976 19.2709C2.39648 17.9377 2.39648 15.7918 2.39648 11.5C2.39648 7.20829 2.39648 5.06242 3.72976 3.72915C5.06303 2.39587 7.20891 2.39587 11.5007 2.39587C12.5279 2.39587 13.4322 2.39587 14.2319 2.41416" stroke="#246DFF" stroke-width="1.5" stroke-linecap="round"/>
<path d="M7.66602 11.0209C7.66602 11.0209 9.10352 11.0209 11.0202 14.375C11.0202 14.375 15.8682 5.59032 20.6035 3.83337" stroke="#246DFF" stroke-width="1.5" stroke-linecap="round" stroke-linejoin="round"/>
</svg>
