<svg width="20" height="18" viewBox="0 0 20 18" fill="none" xmlns="http://www.w3.org/2000/svg">
<path d="M10 9C12.4853 9 14.5 6.98528 14.5 4.5C14.5 2.01472 12.4853 0 10 0C7.51477 0 5.50005 2.01472 5.50005 4.5C5.50005 6.98528 7.51477 9 10 9Z" fill="#246DFF"/>
<path d="M10 18C13.9765 18 17.2 16.1867 17.2 13.95C17.2 11.7132 13.9765 9.89999 10 9.89999C6.0236 9.89999 2.80005 11.7132 2.80005 13.95C2.80005 16.1867 6.0236 18 10 18Z" fill="#246DFF"/>
<path d="M16.5001 4.50008C16.5001 4.05958 16.3577 3.65234 16.1164 3.32189C15.8943 3.01776 15.5885 2.77868 15.2328 2.63857L15.2074 2.62829C15.1621 2.60948 15.1174 2.58832 15.0739 2.56492C15.0279 2.54023 14.9833 2.51305 14.9404 2.48354C14.6878 2.30955 14.5001 2.05461 14.5001 1.75008C14.5001 1.33587 14.8398 0.991735 15.2446 1.07944C16.4433 1.33914 17.4133 2.21296 17.8085 3.35503C17.9326 3.71382 18.0001 4.09907 18.0001 4.50008C18.0001 4.90109 17.9326 5.28634 17.8085 5.64512C17.4133 6.7872 16.4433 7.66102 15.2446 7.92072C14.8398 8.00842 14.5001 7.66429 14.5001 7.25008C14.5001 6.94554 14.6878 6.69061 14.9404 6.51662C14.9833 6.48711 15.028 6.45993 15.0739 6.43524C15.1175 6.41184 15.1621 6.39067 15.2074 6.37186L15.2328 6.36159C15.5885 6.22148 15.8943 5.9824 16.1164 5.67827C16.3577 5.34782 16.5001 4.94058 16.5001 4.50008Z" fill="#246DFF"/>
<path d="M18.5001 13.5001C18.5001 13.5873 18.4543 13.7844 18.2247 14.0374C18.14 14.1307 18.0303 14.2316 17.8888 14.3374C17.8629 14.3568 17.8378 14.3773 17.8138 14.3988C17.7893 14.4208 17.7658 14.4439 17.7435 14.4679C17.5947 14.6286 17.5001 14.8328 17.5001 15.0541C17.5001 15.6263 18.0873 16.013 18.5632 15.6951C18.6401 15.6437 18.7144 15.5912 18.7859 15.5375L18.8146 15.5158C19.0302 15.3512 19.2202 15.1762 19.3813 14.9924C19.7781 14.5398 20.0001 14.0339 20.0001 13.5001C20.0001 12.9663 19.7781 12.4604 19.3813 12.0077C19.2201 11.824 19.0302 11.649 18.8146 11.4844L18.7859 11.4627C18.7144 11.409 18.6401 11.3564 18.5632 11.3051C18.0873 10.9872 17.5001 11.3739 17.5001 11.9461C17.5001 12.1674 17.5947 12.3716 17.7435 12.5322C17.7658 12.5563 17.7893 12.5793 17.8138 12.6014C17.8378 12.6229 17.8629 12.6434 17.8888 12.6627C18.0303 12.7686 18.14 12.8695 18.2247 12.9628C18.4543 13.2158 18.5001 13.4129 18.5001 13.5001Z" fill="#246DFF"/>
<path d="M3.5 4.49984C3.5 4.05933 3.64241 3.65209 3.8837 3.32164C4.10577 3.01752 4.4116 2.77843 4.76725 2.63833L4.79265 2.62805C4.83794 2.60924 4.88261 2.58807 4.92615 2.56468C4.97211 2.53998 5.01681 2.5128 5.05964 2.4833C5.31224 2.30931 5.5 2.05437 5.5 1.74984C5.5 1.33562 5.16028 0.991491 4.75545 1.07919C3.55671 1.33889 2.58681 2.21271 2.19159 3.35479C2.06744 3.71357 2 4.09883 2 4.49984C2 4.90084 2.06744 5.2861 2.19159 5.64488C2.58681 6.78696 3.55671 7.66078 4.75545 7.92048C5.16028 8.00818 5.5 7.66405 5.5 7.24984C5.5 6.9453 5.31224 6.69036 5.05964 6.51637C5.01681 6.48687 4.97211 6.45969 4.92615 6.43499C4.88261 6.4116 4.83793 6.39043 4.79263 6.37162L4.76725 6.36134C4.4116 6.22124 4.10577 5.98215 3.8837 5.67803C3.64241 5.34758 3.5 4.94034 3.5 4.49984Z" fill="#246DFF"/>
<path d="M1.5 13.4998C1.5 13.587 1.5458 13.7841 1.77541 14.0372C1.86007 14.1305 1.96971 14.2314 2.11126 14.3372C2.1372 14.3566 2.16224 14.3771 2.18625 14.3986C2.2108 14.4206 2.23429 14.4437 2.25655 14.4677C2.40532 14.6283 2.5 14.8326 2.5 15.0538C2.5 15.6261 1.91272 16.0127 1.43687 15.6949C1.35997 15.6435 1.2857 15.5909 1.21419 15.5372L1.18549 15.5155C0.969852 15.351 0.779904 15.176 0.618789 14.9922C0.22192 14.5395 0 14.0336 0 13.4998C0 12.966 0.221925 12.4602 0.618805 12.0075C0.779917 11.8237 0.96986 11.6487 1.18549 11.4842L1.21419 11.4624C1.2857 11.4088 1.35997 11.3562 1.43687 11.3048C1.91272 10.987 2.5 11.3736 2.5 11.9459C2.5 12.1671 2.40532 12.3714 2.25655 12.532C2.23429 12.556 2.2108 12.5791 2.18625 12.6011C2.16224 12.6226 2.1372 12.6431 2.11126 12.6625C1.96971 12.7683 1.86007 12.8692 1.77541 12.9625C1.5458 13.2156 1.5 13.4127 1.5 13.4998Z" fill="#246DFF"/>
</svg>
