<svg width="20" height="18" viewBox="0 0 20 18" fill="none" xmlns="http://www.w3.org/2000/svg">
<g opacity="0.27">
<path d="M19.6197 12V2.00001C19.6197 1.44772 19.2534 1.00001 18.8015 1.00001H15.9379C15.486 1.00001 15.1197 1.44772 15.1197 2.00001V12C15.1197 12.5523 15.486 13 15.9379 13H18.8015C19.2534 13 19.6197 12.5523 19.6197 12Z" fill="#434343"/>
<path d="M6.4071 12.1467L5.63338 14.0869C4.96905 15.7528 6.43655 17.4842 8.1888 17.1018C8.49368 17.0352 8.77396 16.885 8.99817 16.668L12.7874 13L13.819 12.201C14.7972 11.4434 15.3697 10.2758 15.3697 9.03862V4.75491C15.3697 3.35518 14.638 2.05728 13.4405 1.33265L12.1929 0.577738C11.5683 0.199797 10.8521 0 10.1221 0H5.46622C3.6695 0 2.09324 1.19801 1.61223 2.92914L0.074169 8.46457C-0.279939 9.73899 0.678459 11 2.00117 11H5.62988C6.22147 11 6.62623 11.5972 6.4071 12.1467Z" fill="#434343"/>
</g>
</svg>
