<svg width="16" height="14" viewBox="0 0 16 14" fill="none" xmlns="http://www.w3.org/2000/svg">
<path d="M15.8468 6.3148C15.0659 9.71883 10.4975 12.7362 8.71341 13.8006C8.26779 14.0665 7.73221 14.0665 7.28659 13.8006C5.50249 12.7362 0.934117 9.71883 0.153221 6.3148C-0.551907 3.24105 1.23766 0.0473258 4.26809 0.00142954C4.33064 0.00048213 4.39412 0 4.45854 0C5.67847 0 6.76758 0.62726 7.40608 1.09101C7.7549 1.34436 8.2451 1.34436 8.59392 1.09101C9.23242 0.62726 10.3215 0 11.5415 0C11.6059 0 11.6694 0.00048213 11.7319 0.00142954C14.7623 0.0473258 16.5519 3.24105 15.8468 6.3148Z" fill="#363538"/>
</svg>
