<svg width="20" height="18" viewBox="0 0 20 18" fill="none" xmlns="http://www.w3.org/2000/svg">
<path fill-rule="evenodd" clip-rule="evenodd" d="M17.5298 0.625C17.5298 0.279822 17.2499 0 16.9048 0C16.5596 0 16.2798 0.279822 16.2798 0.625V0.630322C15.2096 0.740512 14.375 1.64481 14.375 2.74405C14.375 3.84329 15.2096 4.74758 16.2798 4.85777V6.52893C15.8944 6.36111 15.625 5.9769 15.625 5.52976C15.625 5.18458 15.3452 4.90476 15 4.90476C14.6548 4.90476 14.375 5.18458 14.375 5.52976C14.375 6.67323 15.1954 7.62509 16.2798 7.82877V7.86309C16.2798 8.20827 16.5596 8.48809 16.9048 8.48809C17.248 8.48809 17.5266 8.21137 17.5297 7.86884C18.6896 7.85293 19.625 6.90772 19.625 5.74405C19.625 4.58038 18.6896 3.63517 17.5298 3.61925V1.89649C18.0139 2.0073 18.375 2.44064 18.375 2.95833C18.375 3.30351 18.6548 3.58333 19 3.58333C19.3452 3.58333 19.625 3.30351 19.625 2.95833C19.625 1.7488 18.707 0.753663 17.5298 0.631625V0.625ZM15.625 2.74405C15.625 2.33687 15.9031 1.99465 16.2798 1.897V3.5911C15.9031 3.49345 15.625 3.15123 15.625 2.74405ZM18.375 5.74405C18.375 6.21734 17.9992 6.60286 17.5298 6.61855V4.86954C17.9992 4.88524 18.375 5.27076 18.375 5.74405Z" fill="#246DFF"/>
<path d="M0 6.625V16.625C0 17.1773 0.366313 17.625 0.818182 17.625H3.68182C4.13369 17.625 4.5 17.1773 4.5 16.625V15.2398C4.76358 15.3849 5.09463 15.4092 5.39937 15.2551C5.77296 15.0662 6.22154 15.1466 6.57112 15.3769C9.3985 17.2396 17.1288 17.5831 19.7031 12.3774C20.5954 10.5731 19.392 10.8875 17.221 11.4547C15.6944 11.8535 13.6895 12.3772 11.5983 12.3774C11.0866 12.3775 6.56146 11.6244 13.1179 9.81617L13.2303 9.78507C14.431 9.45136 14.455 8.32342 13.2089 8.30805C12.642 8.30106 11.9986 8.38245 11.3694 8.46205C10.5279 8.56851 9.71168 8.67177 9.13748 8.55611C8.88402 8.50505 8.65725 8.37651 8.42984 8.24759C8.27798 8.1615 8.12582 8.07525 7.96524 8.01181C7.09991 7.66992 6.32388 7.57663 5.65925 7.64682C5.15632 7.69994 4.77169 7.96433 4.5 8.34157V6.625C4.5 6.07272 4.13369 5.625 3.68182 5.625H0.818182C0.366313 5.625 0 6.07271 0 6.625Z" fill="#246DFF"/>
</svg>
