<svg width="18" height="19" viewBox="0 0 18 19" fill="none" xmlns="http://www.w3.org/2000/svg">
<path d="M14.1382 10.4966C13.3411 10.0411 12.3692 10.0141 11.5481 10.4247L11.1534 10.622C9.72604 11.3357 8.04593 11.3357 6.61855 10.622L6.22383 10.4247C5.40277 10.0141 4.43085 10.0411 3.63381 10.4966L3.32334 10.674C2.76663 10.9921 2.14901 11.1524 1.53165 11.157L1.9702 14.8846C2.20719 16.8991 3.91446 18.4173 5.9428 18.4173L6.13578 18.4173V15.4173C6.13578 13.8985 7.367 12.6673 8.88578 12.6673C10.4046 12.6673 11.6358 13.8985 11.6358 15.4173V18.4173L12.3288 18.4173C14.3571 18.4173 16.0644 16.8991 16.3014 14.8846L16.7436 11.1262C15.964 11.228 15.157 11.0788 14.4486 10.674L14.1382 10.4966Z" fill="#246DFF"/>
<path d="M10.1358 18.4173V15.4173C10.1358 14.7269 9.57614 14.1673 8.88578 14.1673C8.19543 14.1673 7.63578 14.7269 7.63578 15.4173V18.4173H10.1358Z" fill="#246DFF"/>
<path d="M11.081 0.283106L9.87223 0.0816365C9.21914 -0.0272122 8.55253 -0.0272122 7.89944 0.0816365L6.67546 0.285633L6.63095 0.729734L5.62995 8.35633L5.62946 8.36016L5.57862 8.76363L6.20255 9.0756C7.89172 9.92018 9.87995 9.92018 11.5691 9.0756L12.193 8.76363L12.1422 8.36016L12.1417 8.35632L11.1422 0.741117L11.081 0.283106Z" fill="#246DFF"/>
<path d="M13.7214 8.89471L15.6109 9.97439C16.0858 10.2458 16.6733 10.2256 17.1285 9.92212C17.5913 9.61361 17.8358 9.06678 17.7571 8.5162L17.0123 3.30247C16.9318 2.73918 16.6152 2.23684 16.1418 1.92121L14.3897 0.753137C14.0611 0.534113 13.6751 0.417238 13.2803 0.417238H12.6123L12.6295 0.545916L13.63 8.16881L13.7214 8.89471Z" fill="#246DFF"/>
<path d="M4.05024 8.89472L4.14172 8.1688L4.14221 8.16496L5.14072 0.557301L5.15476 0.417238H4.49138C4.09653 0.417238 3.71052 0.534114 3.38198 0.753137L1.62987 1.92121C1.15643 2.23684 0.839841 2.73918 0.759372 3.30247L0.0145535 8.5162C-0.0641014 9.06678 0.180391 9.61361 0.643156 9.92212C1.09832 10.2256 1.68586 10.2458 2.16082 9.97439L4.05024 8.89472Z" fill="#246DFF"/>
</svg>
