<svg width="27" height="27" viewBox="0 0 27 27" fill="none" xmlns="http://www.w3.org/2000/svg">
<path d="M13.5 18.9C16.1095 18.9 18.225 16.7845 18.225 14.175C18.225 11.5655 16.1095 9.45 13.5 9.45C10.8905 9.45 8.775 11.5655 8.775 14.175C8.775 16.7845 10.8905 18.9 13.5 18.9Z" fill="#5A86FD"/>
<path fill-rule="evenodd" clip-rule="evenodd" d="M0 13.5C0 8.45307 0 5.92961 1.08519 4.05C1.79612 2.81864 2.81864 1.79612 4.05 1.08519C5.92961 0 8.45307 0 13.5 0C18.5469 0 21.0704 0 22.95 1.08519C24.1814 1.79612 25.2039 2.81864 25.9148 4.05C27 5.92961 27 8.45307 27 13.5C27 18.5469 27 21.0704 25.9148 22.95C25.2039 24.1814 24.1814 25.2039 22.95 25.9148C21.0704 27 18.5469 27 13.5 27C8.45307 27 5.92961 27 4.05 25.9148C2.81864 25.2039 1.79612 24.1814 1.08519 22.95C0 21.0704 0 18.5469 0 13.5ZM13.5 20.925C17.2279 20.925 20.25 17.9029 20.25 14.175C20.25 10.4471 17.2279 7.425 13.5 7.425C9.77208 7.425 6.75 10.4471 6.75 14.175C6.75 17.9029 9.77208 20.925 13.5 20.925ZM19.575 8.1C20.6934 8.1 21.6 7.19338 21.6 6.075C21.6 4.95662 20.6934 4.05 19.575 4.05C18.4566 4.05 17.55 4.95662 17.55 6.075C17.55 7.19338 18.4566 8.1 19.575 8.1Z" fill="#5A86FD"/>
</svg>
