<svg width="20" height="18" viewBox="0 0 20 18" fill="none" xmlns="http://www.w3.org/2000/svg">
<path fill-rule="evenodd" clip-rule="evenodd" d="M4 0.0808105H16C18.2091 0.0808105 20 1.87167 20 4.08081V12.0808C20 14.29 18.2091 16.0808 16 16.0808H4C1.79086 16.0808 0 14.29 0 12.0808V4.08081C0 1.87167 1.79086 0.0808105 4 0.0808105ZM8.3975 6.21681C8.74875 5.99728 8.85553 5.53456 8.636 5.18331C8.41647 4.83206 7.95375 4.72528 7.6025 4.94481L4.9593 6.59681C3.86263 7.28223 3.86263 8.87939 4.9593 9.56481L7.6025 11.2168C7.95375 11.4363 8.41647 11.3296 8.636 10.9783C8.85553 10.6271 8.74875 10.1643 8.3975 9.94481L5.7543 8.29281C5.59763 8.19489 5.59763 7.96673 5.7543 7.86881L8.3975 6.21681ZM11.364 5.18331C11.1445 5.53456 11.2512 5.99728 11.6025 6.21681L14.2457 7.86881C14.4024 7.96673 14.4024 8.19489 14.2457 8.29281L11.6025 9.94481C11.2512 10.1643 11.1445 10.6271 11.364 10.9783C11.5835 11.3296 12.0462 11.4363 12.3975 11.2168L15.0407 9.56481C16.1374 8.87939 16.1374 7.28223 15.0407 6.59681L12.3975 4.94481C12.0462 4.72528 11.5835 4.83206 11.364 5.18331Z" fill="#246DFF"/>
<path d="M8 16.3308C7.58579 16.3308 7.25 16.6666 7.25 17.0808C7.25 17.495 7.58579 17.8308 8 17.8308H12C12.4142 17.8308 12.75 17.495 12.75 17.0808C12.75 16.6666 12.4142 16.3308 12 16.3308H8Z" fill="#246DFF"/>
</svg>
