<svg width="20" height="18" viewBox="0 0 20 18" fill="none" xmlns="http://www.w3.org/2000/svg">
<path opacity="0.27" d="M13.9863 3.06849L13.2126 5.00873C12.9935 5.55823 13.3982 6.1554 13.9898 6.1554H17.6185C18.9412 6.1554 19.8996 7.41641 19.5455 8.69083L18.0075 14.2263C17.5264 15.9574 15.9502 17.1554 14.1535 17.1554H9.4976C8.76755 17.1554 8.05142 16.9556 7.42682 16.5777L6.17922 15.8228C5.39453 15.3479 4.80987 14.627 4.5 13.7926V15.1555C4.5 15.7078 4.13369 16.1555 3.68182 16.1555H0.818182C0.366313 16.1555 0 15.7078 0 15.1555V5.15552C0 4.60323 0.366313 4.15552 0.818182 4.15552H3.68182C4.13369 4.15552 4.5 4.60323 4.5 5.15552V6.72481C4.75671 6.03335 5.20296 5.41732 5.80067 4.95438L6.83226 4.1554L10.6215 0.487414C10.8457 0.270378 11.126 0.120156 11.4309 0.0536229C13.1831 -0.328777 14.6506 1.40257 13.9863 3.06849Z" fill="#434343"/>
</svg>
