<svg width="20" height="19" viewBox="0 0 20 19" fill="none" xmlns="http://www.w3.org/2000/svg">
<path d="M2.8499 0.00368957C1.34595 0.0777952 0.133241 1.2594 0.0102685 2.75H1.5999C2.29026 2.75 2.8499 2.19036 2.8499 1.5V0.00368957Z" fill="#246DFF"/>
<path d="M0 4.25V9.75H0.5V6.92857C0.5 5.84213 0.991299 4.87371 1.75784 4.24554C1.70557 4.2485 1.65291 4.25 1.5999 4.25H0Z" fill="#246DFF"/>
<path d="M0.5 12.6589V11.25H0.0102684C0.0530149 11.7681 0.227439 12.249 0.5 12.6589Z" fill="#246DFF"/>
<path d="M3.83333 3.5H14.5126C13.9815 2.99862 13.6501 2.28801 13.6501 1.5V0H4.3499V1.5C4.3499 2.2989 4.00923 3.01824 3.46524 3.52067C3.58611 3.50701 3.70893 3.5 3.83333 3.5Z" fill="#246DFF"/>
<path d="M17.9897 2.75C17.8668 1.2594 16.654 0.0777951 15.1501 0.00368957V1.5C15.1501 2.19036 15.7097 2.75 16.4001 2.75H17.9897Z" fill="#246DFF"/>
<path d="M4.75005 5.01026C3.29258 5.13048 2.13051 6.29253 2.01027 7.75H3.50005C4.1904 7.75 4.75005 7.19036 4.75005 6.5V5.01026Z" fill="#246DFF"/>
<path d="M11 13.125C11.7029 13.125 12.2 12.5818 12.2 12C12.2 11.4182 11.7029 10.875 11 10.875C10.2972 10.875 9.80005 11.4182 9.80005 12C9.80005 12.5818 10.2972 13.125 11 13.125Z" fill="#246DFF"/>
<path fill-rule="evenodd" clip-rule="evenodd" d="M2 9.25V14.75H3.5999C5.11869 14.75 6.3499 15.9812 6.3499 17.5V19H15.6501V17.5C15.6501 15.9812 16.8813 14.75 18.4001 14.75H20V9.25H18.4001C16.8813 9.25 15.6501 8.01878 15.6501 6.5V5H6.25005V6.5C6.25005 8.01878 5.01883 9.25 3.50005 9.25H2ZM11 14.625C12.4912 14.625 13.7 13.4497 13.7 12C13.7 10.5503 12.4912 9.375 11 9.375C9.50888 9.375 8.30005 10.5503 8.30005 12C8.30005 13.4497 9.50888 14.625 11 14.625Z" fill="#246DFF"/>
<path d="M4.8499 18.9963C3.34595 18.9222 2.13324 17.7406 2.01027 16.25H3.5999C4.29026 16.25 4.8499 16.8096 4.8499 17.5V18.9963Z" fill="#246DFF"/>
<path d="M17.1501 18.9963C18.654 18.9222 19.8668 17.7406 19.9897 16.25H18.4001C17.7097 16.25 17.1501 16.8096 17.1501 17.5V18.9963Z" fill="#246DFF"/>
<path d="M19.9897 7.75C19.8668 6.2594 18.654 5.0778 17.1501 5.00369V6.5C17.1501 7.19036 17.7097 7.75 18.4001 7.75H19.9897Z" fill="#246DFF"/>
</svg>
