<svg width="20" height="20" viewBox="0 0 20 20" fill="none" xmlns="http://www.w3.org/2000/svg">
<path d="M9.25 0C8.00619 0.092224 6.8257 0.411963 5.75 0.91775V4.79968C6.95219 4.54069 8.1905 4.32586 9.25 4.25085V0Z" fill="#246DFF"/>
<path d="M9.25 5.75472C8.22429 5.83592 6.98004 6.06128 5.75 6.33548V13.6091C6.98004 13.8833 8.22429 14.1087 9.25 14.1899V5.75472Z" fill="#246DFF"/>
<path d="M10.75 14.1899V5.75472C11.7757 5.83592 13.02 6.06128 14.25 6.33548V13.6091C13.02 13.8833 11.7757 14.1087 10.75 14.1899Z" fill="#246DFF"/>
<path d="M9.25 15.6937C8.1905 15.6187 6.95219 15.4039 5.75 15.1449V19.0268C6.8257 19.5326 8.00619 19.8524 9.25 19.9446V15.6937Z" fill="#246DFF"/>
<path d="M10.75 19.9446V15.6937C11.8095 15.6187 13.0478 15.4039 14.25 15.1449V19.0268C13.1743 19.5326 11.9938 19.8524 10.75 19.9446Z" fill="#246DFF"/>
<path d="M10.75 4.25085V1.10504e-10C11.9938 0.092224 13.1743 0.411963 14.25 0.91775V4.79968C13.0478 4.54069 11.8095 4.32586 10.75 4.25085Z" fill="#246DFF"/>
<path d="M19.2236 13.8424C18.4908 15.5866 17.2778 17.0793 15.75 18.1549V14.7973C15.8825 14.7646 16.0133 14.7319 16.1419 14.6993C17.1394 14.4465 18.0342 14.1938 18.6796 14.0045C18.8885 13.9432 19.0715 13.8884 19.2236 13.8424Z" fill="#246DFF"/>
<path d="M15.7733 13.2453L15.75 13.2512V6.69339L15.7733 6.6993C16.7483 6.94645 17.6247 7.19383 18.2573 7.37946C18.5735 7.47222 18.8283 7.54942 19.0036 7.60329C19.0913 7.63022 19.159 7.6513 19.2046 7.66557L19.256 7.68173L19.2687 7.68575L19.7736 7.84655C19.9219 8.53162 20 9.24284 20 9.9723C20 10.7018 19.9219 11.413 19.7736 12.098L19.256 12.2629L19.2046 12.279C19.159 12.2933 19.0913 12.3144 19.0036 12.3413C18.8283 12.3952 18.5735 12.4724 18.2573 12.5651C17.6247 12.7508 16.7483 12.9981 15.7733 13.2453Z" fill="#246DFF"/>
<path d="M16.1419 5.24529C16.0133 5.21268 15.8825 5.17996 15.75 5.14728V1.78974C17.2778 2.86533 18.4908 4.35799 19.2236 6.10218C19.0715 6.05615 18.8885 6.00143 18.6796 5.94014C18.0342 5.75077 17.1394 5.49814 16.1419 5.24529Z" fill="#246DFF"/>
<path d="M4.25 18.1549V14.7973C4.1175 14.7646 3.98674 14.7319 3.85808 14.6993C2.8606 14.4465 1.96576 14.1938 1.32036 14.0045C1.11147 13.9432 0.928508 13.8884 0.776435 13.8424C1.50916 15.5866 2.72219 17.0793 4.25 18.1549Z" fill="#246DFF"/>
<path d="M4.25 13.2512L4.22666 13.2453C3.25168 12.9981 2.37534 12.7508 1.74267 12.5651C1.42653 12.4724 1.1717 12.3952 0.996383 12.3413C0.908736 12.3144 0.840993 12.2933 0.795431 12.279L0.744017 12.2629L0.731328 12.2589L0.226408 12.098C0.0781049 11.413 0 10.7018 0 9.9723C0 9.24284 0.0781048 8.53162 0.226408 7.84655L0.731328 7.68575L0.744017 7.68173L0.795431 7.66557C0.840993 7.6513 0.908736 7.63022 0.996383 7.60329C1.1717 7.54942 1.42653 7.47222 1.74267 7.37946C2.37534 7.19383 3.25168 6.94645 4.22666 6.6993L4.25 6.69339V13.2512Z" fill="#246DFF"/>
<path d="M4.25 1.78974V5.14728C4.1175 5.17996 3.98674 5.21268 3.85808 5.24529C2.8606 5.49814 1.96576 5.75077 1.32036 5.94014C1.11147 6.00143 0.928509 6.05615 0.776435 6.10218C1.50916 4.35799 2.72219 2.86533 4.25 1.78974Z" fill="#246DFF"/>
</svg>
