<svg width="18" height="21" viewBox="0 0 18 21" fill="none" xmlns="http://www.w3.org/2000/svg">
<path d="M5.96673 4.91859C5.4172 2.72048 7.0797 0.591187 9.34546 0.591187C11.6112 0.591187 13.2737 2.72048 12.7242 4.91859L12.556 5.59119H15.0955C16.6142 5.59119 17.8455 6.8224 17.8455 8.34119V15.8412C17.8455 18.4645 15.7188 20.5912 13.0955 20.5912H3.59546C2.07668 20.5912 0.845459 19.36 0.845459 17.8412V15.3412C0.845459 15.1102 0.951864 14.8922 1.1339 14.75C1.31594 14.6079 1.55331 14.5576 1.77737 14.6136L3.3817 15.0147C4.63307 15.3275 5.84528 14.3811 5.84528 13.0912C5.84528 11.8013 4.63307 10.8548 3.3817 11.1677L1.77737 11.5688C1.55331 11.6248 1.31594 11.5745 1.1339 11.4323C0.951864 11.2902 0.845459 11.0721 0.845459 10.8412V7.34119C0.845459 6.37469 1.62896 5.59119 2.59546 5.59119H6.13488L5.96673 4.91859Z" fill="#246DFF"/>
</svg>
