<svg width="20" height="19" viewBox="0 0 20 19" fill="none" xmlns="http://www.w3.org/2000/svg">
<path d="M15.8398 3.17045L15.8415 3.17233C16.1181 3.46768 16.1107 3.92935 15.8246 4.21547L12.6049 7.43502L12.6092 7.43927L9.04847 10.9999L9.04424 10.9957L7.82457 12.2153C7.53168 12.5082 7.0568 12.5082 6.76391 12.2153L2.76386 8.21534C2.62321 8.07469 2.54419 7.88393 2.54419 7.68501C2.54419 7.4861 2.6232 7.29534 2.76386 7.15468L8.2639 1.65458C8.35402 1.56447 8.46586 1.49873 8.58839 1.46371L8.592 1.46268L8.60006 1.46041L8.62836 1.45256C8.65251 1.44593 8.68705 1.43657 8.73091 1.42504C8.81857 1.402 8.94372 1.37023 9.09754 1.33418C9.40423 1.2623 9.82954 1.17234 10.3017 1.10111C10.7714 1.03024 11.3026 0.975538 11.8174 0.979717C12.3203 0.983798 12.8699 1.04388 13.3404 1.24607C13.9672 1.51545 14.604 2.02097 15.0483 2.41195C15.2791 2.61511 15.4754 2.80311 15.6142 2.94051C15.6837 3.00939 15.7393 3.06602 15.7781 3.10604C15.7975 3.12607 15.8127 3.14197 15.8234 3.15322L15.8361 3.16653L15.8398 3.17045Z" fill="#246DFF"/>
<path d="M10.1091 12.0606L13.6698 8.49993L19.0746 13.9047C20.0578 14.8879 20.0578 16.4821 19.0746 17.4653C18.0913 18.4486 16.4972 18.4486 15.5139 17.4653L10.1091 12.0606Z" fill="#246DFF"/>
<path d="M2.07452 9.40473C1.78163 9.11184 1.30675 9.11184 1.01386 9.40473C0.720966 9.69762 0.720966 10.1725 1.01386 10.4654L4.51386 13.9654C4.80675 14.2583 5.28163 14.2583 5.57452 13.9654C5.86741 13.6725 5.86741 13.1976 5.57452 12.9047L2.07452 9.40473Z" fill="#246DFF"/>
</svg>
