<svg width="18" height="16" viewBox="0 0 18 16" fill="none" xmlns="http://www.w3.org/2000/svg">
<path fill-rule="evenodd" clip-rule="evenodd" d="M3.38455 16C2.94684 15.5107 2.7 14.9567 2.7 14.3697C2.7 12.3857 5.52061 10.7773 9 10.7773C12.4794 10.7773 15.3 12.3857 15.3 14.3697C15.3 14.9567 15.0532 15.5107 14.6155 16C16.6785 14.3543 18 11.8217 18 8.98109C18 4.02097 13.9706 0 9 0C4.02944 0 0 4.02097 0 8.98109C0 11.8217 1.32154 14.3543 3.38455 16ZM12.9374 5.72542C12.9374 7.89546 11.1745 9.65462 8.99991 9.65462C6.82531 9.65462 5.06244 7.89546 5.06244 5.72542C5.06244 3.55538 6.82531 1.79622 8.99991 1.79622C11.1745 1.79622 12.9374 3.55538 12.9374 5.72542Z" fill="#246DFF"/>
</svg>
