<svg width="19" height="19" viewBox="0 0 19 19" fill="none" xmlns="http://www.w3.org/2000/svg">
<path d="M10.8883 0.425911C11.0984 -0.141971 11.9016 -0.14197 12.1117 0.425911L12.4026 1.21201C12.4687 1.39055 12.6095 1.53132 12.788 1.59738L13.5741 1.88826C14.142 2.0984 14.142 2.9016 13.5741 3.11174L12.788 3.40262C12.6095 3.46868 12.4687 3.60945 12.4026 3.78799L12.1117 4.57409C11.9016 5.14197 11.0984 5.14197 10.8883 4.57409L10.5974 3.78799C10.5313 3.60945 10.3905 3.46868 10.212 3.40262L9.42591 3.11174C8.85803 2.9016 8.85803 2.0984 9.42591 1.88826L10.212 1.59738C10.3905 1.53132 10.5313 1.39055 10.5974 1.21201L10.8883 0.425911Z" fill="#246DFF"/>
<path d="M9 12.0001C9 13.1046 8.10457 14.0001 7 14.0001C5.89543 14.0001 5 13.1046 5 12.0001C5 10.8955 5.89543 10.0001 7 10.0001C8.10457 10.0001 9 10.8955 9 12.0001Z" fill="#246DFF"/>
<path fill-rule="evenodd" clip-rule="evenodd" d="M2.38134 8.20038C1.99475 7.53077 2.22417 6.67454 2.89378 6.28794L4.10622 5.58794C4.77583 5.20135 5.63205 5.43077 6.01865 6.10038C6.45481 6.85582 7.5452 6.85583 7.98135 6.10039C8.36795 5.43078 9.22418 5.20135 9.89379 5.58795L11.1062 6.28795C11.7758 6.67455 12.0053 7.53078 11.6187 8.20039C11.1825 8.95582 11.7277 9.90013 12.6 9.90013C13.3732 9.90013 14 10.5269 14 11.3001V12.7001C14 13.4733 13.3732 14.1001 12.6 14.1001C11.7277 14.1001 11.1825 15.0444 11.6187 15.7999C12.0053 16.4695 11.7758 17.3257 11.1062 17.7123L9.89378 18.4123C9.22417 18.7989 8.36794 18.5695 7.98134 17.8999C7.54519 17.1444 6.45481 17.1444 6.01866 17.8999C5.63206 18.5695 4.77583 18.7989 4.10622 18.4123L2.89379 17.7123C2.22418 17.3257 1.99475 16.4695 2.38135 15.7999C2.8175 15.0444 2.27231 14.1001 1.4 14.1001C0.626802 14.1001 0 13.4733 0 12.7001V11.3001C0 10.5269 0.626801 9.90013 1.4 9.90013C2.27231 9.90013 2.8175 8.95582 2.38134 8.20038ZM10.5 12.0001C10.5 13.9331 8.933 15.5001 7 15.5001C5.067 15.5001 3.5 13.9331 3.5 12.0001C3.5 10.0671 5.067 8.50006 7 8.50006C8.933 8.50006 10.5 10.0671 10.5 12.0001Z" fill="#246DFF"/>
<path d="M16.7341 5.51109C16.4819 4.82964 15.5181 4.82964 15.2659 5.51109L14.9169 6.45441C14.8376 6.66866 14.6687 6.83758 14.4544 6.91686L13.5111 7.26592C12.8296 7.51808 12.8296 8.48192 13.5111 8.73408L14.4544 9.08314C14.6687 9.16242 14.8376 9.33134 14.9169 9.54559L15.2659 10.4889C15.5181 11.1704 16.4819 11.1704 16.7341 10.4889L17.0831 9.54559C17.1624 9.33134 17.3313 9.16242 17.5456 9.08314L18.4889 8.73408C19.1704 8.48192 19.1704 7.51808 18.4889 7.26592L17.5456 6.91686C17.3313 6.83758 17.1624 6.66866 17.0831 6.45441L16.7341 5.51109Z" fill="#246DFF"/>
</svg>
