<svg width="13" height="13" viewBox="0 0 13 13" fill="none" xmlns="http://www.w3.org/2000/svg">
<path fill-rule="evenodd" clip-rule="evenodd" d="M9.01453 10.0953C8.94598 10.0344 8.84093 10.0105 8.76629 10.0638C7.85852 10.712 6.74713 11.0933 5.54666 11.0933C2.48333 11.0933 0 8.61 0 5.54666C0 2.48333 2.48333 0 5.54666 0C8.61 0 11.0933 2.48333 11.0933 5.54666C11.0933 6.95841 10.5659 8.24698 9.69735 9.22606C9.67363 9.2528 9.67875 9.29426 9.70547 9.31801L12.8255 12.0913C13.0401 12.2821 13.0594 12.6108 12.8686 12.8255C12.6778 13.0401 12.3492 13.0594 12.1345 12.8686L9.01453 10.0953ZM10.0533 5.54666C10.0533 8.03563 8.03563 10.0533 5.54666 10.0533C3.0577 10.0533 1.04 8.03563 1.04 5.54666C1.04 3.0577 3.0577 1.04 5.54666 1.04C8.03563 1.04 10.0533 3.0577 10.0533 5.54666Z" fill="#363538"/>
</svg>
