<svg width="21" height="19" viewBox="0 0 21 19" fill="none" xmlns="http://www.w3.org/2000/svg">
<path d="M10.7427 9.95581C13.228 9.95581 15.2427 7.94109 15.2427 5.45581C15.2427 2.97053 13.228 0.955811 10.7427 0.955811C8.25744 0.955811 6.24272 2.97053 6.24272 5.45581C6.24272 7.94109 8.25744 9.95581 10.7427 9.95581Z" fill="#246DFF"/>
<path d="M10.7427 18.9558C14.7192 18.9558 17.9427 17.1426 17.9427 14.9058C17.9427 12.6691 14.7192 10.8558 10.7427 10.8558C6.76627 10.8558 3.54272 12.6691 3.54272 14.9058C3.54272 17.1426 6.76627 18.9558 10.7427 18.9558Z" fill="#246DFF"/>
<path d="M17.2427 5.45589C17.2427 5.01539 17.1003 4.60815 16.859 4.2777C16.637 3.97357 16.3311 3.73449 15.9755 3.59438L15.9501 3.58411C15.9048 3.56529 15.8601 3.54413 15.8166 3.52073C15.7706 3.49604 15.7259 3.46886 15.6831 3.43935C15.4305 3.26536 15.2427 3.01042 15.2427 2.70589C15.2427 2.29168 15.5825 1.94755 15.9873 2.03525C17.186 2.29495 18.1559 3.16877 18.5511 4.31084C18.6753 4.66963 18.7427 5.05488 18.7427 5.45589C18.7427 5.8569 18.6753 6.24215 18.5511 6.60094C18.1559 7.74301 17.186 8.61683 15.9873 8.87653C15.5825 8.96423 15.2427 8.6201 15.2427 8.20589C15.2427 7.90135 15.4305 7.64642 15.6831 7.47243C15.7259 7.44292 15.7706 7.41574 15.8166 7.39105C15.8601 7.36765 15.9048 7.34648 15.9501 7.32767L15.9755 7.3174C16.3311 7.17729 16.637 6.93821 16.859 6.63408C17.1003 6.30363 17.2427 5.89639 17.2427 5.45589Z" fill="#246DFF"/>
<path d="M19.2427 14.4559C19.2427 14.5431 19.1969 14.7402 18.9673 14.9932C18.8827 15.0865 18.773 15.1874 18.6315 15.2932C18.6055 15.3126 18.5805 15.3331 18.5565 15.3546C18.5319 15.3766 18.5085 15.3997 18.4862 15.4238C18.3374 15.5844 18.2427 15.7886 18.2427 16.0099C18.2427 16.5821 18.83 16.9688 19.3059 16.6509C19.3828 16.5996 19.457 16.547 19.5285 16.4933L19.5572 16.4716C19.7729 16.307 19.9628 16.132 20.1239 15.9483C20.5208 15.4956 20.7427 14.9897 20.7427 14.4559C20.7427 13.9221 20.5208 13.4162 20.1239 12.9635C19.9628 12.7798 19.7729 12.6048 19.5572 12.4402L19.5285 12.4185C19.457 12.3648 19.3828 12.3122 19.3059 12.2609C18.83 11.943 18.2427 12.3297 18.2427 12.9019C18.2427 13.1232 18.3374 13.3274 18.4862 13.488C18.5085 13.5121 18.5319 13.5352 18.5565 13.5572C18.5805 13.5787 18.6055 13.5992 18.6315 13.6186C18.773 13.7244 18.8827 13.8253 18.9673 13.9186C19.1969 14.1716 19.2427 14.3687 19.2427 14.4559Z" fill="#246DFF"/>
<path d="M4.24268 5.45565C4.24268 5.01514 4.38509 4.6079 4.62638 4.27745C4.84845 3.97333 5.15427 3.73424 5.50992 3.59414L5.53532 3.58386C5.58062 3.56505 5.62529 3.54388 5.66882 3.52049C5.71479 3.49579 5.75949 3.46861 5.80232 3.43911C6.05491 3.26512 6.24268 3.01018 6.24268 2.70565C6.24268 2.29143 5.90295 1.9473 5.49813 2.035C4.29939 2.2947 3.32948 3.16852 2.93427 4.3106C2.81011 4.66938 2.74268 5.05464 2.74268 5.45565C2.74268 5.85665 2.81011 6.24191 2.93427 6.60069C3.32948 7.74277 4.29939 8.61659 5.49813 8.87629C5.90295 8.96399 6.24268 8.61986 6.24268 8.20565C6.24268 7.90111 6.05491 7.64617 5.80232 7.47218C5.75949 7.44268 5.71479 7.4155 5.66882 7.3908C5.62528 7.36741 5.58061 7.34624 5.53531 7.32743L5.50992 7.31715C5.15427 7.17705 4.84845 6.93796 4.62638 6.63384C4.38509 6.30339 4.24268 5.89615 4.24268 5.45565Z" fill="#246DFF"/>
<path d="M2.24268 14.4557C2.24268 14.5428 2.28848 14.7399 2.51809 14.993C2.60274 15.0863 2.71239 15.1872 2.85394 15.293C2.87988 15.3124 2.90492 15.3329 2.92892 15.3544C2.95348 15.3764 2.97696 15.3995 2.99923 15.4235C3.14799 15.5841 3.24268 15.7884 3.24268 16.0096C3.24268 16.5819 2.6554 16.9685 2.17955 16.6507C2.10264 16.5993 2.02838 16.5468 1.95686 16.4931L1.92817 16.4713C1.71253 16.3068 1.52258 16.1318 1.36147 15.948C0.964595 15.4953 0.742676 14.9894 0.742676 14.4557C0.742676 13.9219 0.964601 13.416 1.36148 12.9633C1.52259 12.7795 1.71254 12.6045 1.92817 12.44L1.95686 12.4183C2.02838 12.3646 2.10264 12.312 2.17955 12.2606C2.6554 11.9428 3.24268 12.3294 3.24268 12.9017C3.24268 13.1229 3.14799 13.3272 2.99923 13.4878C2.97696 13.5118 2.95348 13.5349 2.92892 13.5569C2.90492 13.5784 2.87988 13.5989 2.85394 13.6183C2.71239 13.7241 2.60274 13.825 2.51809 13.9183C2.28848 14.1714 2.24268 14.3685 2.24268 14.4557Z" fill="#246DFF"/>
</svg>
