<svg width="19" height="19" viewBox="0 0 19 19" fill="none" xmlns="http://www.w3.org/2000/svg">
<path d="M6.65191 2.05403L7.85162 1.38753C9.05971 0.716365 10.5287 0.716365 11.7368 1.38753L16.7368 4.1653C16.9192 4.26666 17.0917 4.38109 17.2533 4.50704L13.8189 6.5391L6.65191 2.05403Z" fill="#246DFF"/>
<path d="M5.33025 2.78829L2.85162 4.1653C2.60107 4.3045 2.36929 4.46834 2.15863 4.65284C2.15972 4.65344 2.16081 4.65405 2.16189 4.65466L8.13597 8.01518C9.15366 8.58765 10.4002 8.57018 11.4015 7.96941L11.4055 7.96703L12.3654 7.39905L5.64633 3.19424C5.49024 3.09656 5.38249 2.95086 5.33025 2.78829Z" fill="#246DFF"/>
<path d="M1.24424 5.81859C0.95346 6.37849 0.794189 7.00867 0.794189 7.66193V11.9547C0.794189 13.4074 1.58176 14.7459 2.85162 15.4513L7.85162 18.2291C8.23119 18.44 8.63652 18.5846 9.05141 18.663C9.04665 18.6288 9.04419 18.5939 9.04419 18.5585V9.88296C8.47529 9.80011 7.91771 9.61344 7.40056 9.32253L1.42649 5.96202C1.35683 5.92283 1.29584 5.87418 1.24424 5.81859Z" fill="#246DFF"/>
<path d="M10.5442 9.86222V18.5585C10.5442 18.5939 10.5417 18.6288 10.537 18.663C10.9519 18.5846 11.3572 18.44 11.7368 18.2291L16.7368 15.4513C18.0066 14.7459 18.7942 13.4074 18.7942 11.9547V7.66193C18.7942 6.94309 18.6013 6.2522 18.2526 5.65215C18.2285 5.67073 18.203 5.68805 18.1761 5.70395L12.1733 9.25564L12.1712 9.25688C11.6624 9.56179 11.1104 9.76371 10.5442 9.86222Z" fill="#246DFF"/>
</svg>
