<svg width="22" height="22" viewBox="0 0 22 22" fill="none" xmlns="http://www.w3.org/2000/svg">
<path fill-rule="evenodd" clip-rule="evenodd" d="M11.6585 0.154389C11.0703 -0.0514634 10.4297 -0.0514629 9.84154 0.15439L1.84154 2.95439C0.738546 3.34044 0 4.38141 0 5.55V7.13104C0 8.09754 0.783502 8.88104 1.75 8.88104H2V16.5494C1.40876 16.8303 1 17.4329 1 18.131V18.406C0.42944 18.5219 0 19.0263 0 19.631V20.131C0 21.0975 0.783502 21.881 1.75 21.881H19.75C20.7165 21.881 21.5 21.0975 21.5 20.131V19.631C21.5 19.0263 21.0706 18.5219 20.5 18.406V18.131C20.5 17.4329 20.0912 16.8303 19.5 16.5494V8.88104H19.75C20.7165 8.88104 21.5 8.09754 21.5 7.13104V5.55C21.5 4.3814 20.7615 3.34044 19.6585 2.95439L11.6585 0.154389ZM3.5 16.381V8.88104H6V16.381H3.5ZM7.5 16.381V8.88104H10V16.381H7.5ZM11.5 16.381V8.88104H14V16.381H11.5ZM15.5 16.381V8.88104H18V16.381H15.5ZM9.5 4.63104C9.5 3.94068 10.0596 3.38104 10.75 3.38104C11.4404 3.38104 12 3.94068 12 4.63104C12 5.32139 11.4404 5.88104 10.75 5.88104C10.0596 5.88104 9.5 5.32139 9.5 4.63104Z" fill="white"/>
</svg>
