<svg width="19" height="18" viewBox="0 0 19 18" fill="none" xmlns="http://www.w3.org/2000/svg">
<path fill-rule="evenodd" clip-rule="evenodd" d="M1.32194 17.7406L1.77832 14.5459L0.938736 12.8667C-0.671287 9.6467 -0.180481 5.77354 2.18184 3.05687C5.50454 -0.764238 11.343 -1.04263 15.0142 2.445L15.2702 2.68819C17.1759 4.49861 18.1772 7.06314 18.0023 9.68588C17.629 15.2851 12.2011 19.1243 6.79729 17.6112L4.77832 17.0459L1.57487 17.9612C1.43555 18.001 1.30145 17.884 1.32194 17.7406ZM5.08978 5.5429L4.71891 6.4116C4.42104 7.10928 4.3228 7.88567 4.6112 8.58755C4.95763 9.43064 5.62155 10.629 6.8505 11.7246C8.07945 12.8202 9.34378 13.3408 10.2191 13.5868C10.9478 13.7917 11.7048 13.6026 12.3605 13.2239L13.2042 12.7365C13.7761 12.4062 13.8657 11.6146 13.3821 11.1637L12.7352 10.5445C12.3784 10.2118 11.8308 10.1963 11.4562 10.5084C11.0361 10.8585 10.1211 11.3239 9.64351 11.0579C9.35851 10.8992 8.68066 10.3768 8.46102 10.181C8.20617 9.95377 7.57479 9.28097 7.36779 8.98203C7.10338 8.60018 7.40485 7.73217 7.58727 7.30492L7.70188 7.04046C7.86802 6.65132 7.76929 6.20093 7.45375 5.91964L6.64239 5.19529C6.14202 4.74923 5.35324 4.92583 5.08978 5.5429Z" fill="#246DFF"/>
</svg>
