<svg width="135" height="135" viewBox="0 0 135 135" fill="none" xmlns="http://www.w3.org/2000/svg">
<circle cx="67.5" cy="67.5" r="67.5" fill="#F0F0F0"/>
<path d="M92 42.4265C92 41.0864 90.9255 40 89.6 40C88.2745 40 87.2 41.0864 87.2 42.4265V52.7449L84.8971 50.4166C83.9598 49.469 82.4402 49.469 81.5029 50.4166C80.5657 51.3642 80.5657 52.9005 81.5029 53.8481L87.9029 60.3187C88.353 60.7738 88.9635 61.0294 89.6 61.0294C90.2365 61.0294 90.847 60.7738 91.2971 60.3187L97.6971 53.8481C98.6343 52.9005 98.6343 51.3642 97.6971 50.4166C96.7598 49.469 95.2402 49.469 94.3029 50.4166L92 52.7449V42.4265Z" fill="#5A86FD"/>
<path fill-rule="evenodd" clip-rule="evenodd" d="M82 43.2353C82.6627 43.2353 83.2 43.7785 83.2 44.4485C83.2 45.1186 82.6582 45.6502 82.0069 45.7746C80.7861 46.0076 79.6193 46.6017 78.6745 47.557C76.1752 50.0839 76.1752 54.1808 78.6745 56.7078L85.0745 63.1783C86.2747 64.3918 87.9026 65.0735 89.6 65.0735C91.2974 65.0735 92.9253 64.3918 94.1255 63.1783C96.2933 60.9866 100 62.5389 100 65.6385V82.0588C100 89.206 94.2692 95 87.2 95H48.8C41.7308 95 36 89.206 36 82.0588V56.1765C36 49.0293 41.7308 43.2353 48.8 43.2353H82ZM50.72 51.4853C49.9247 50.4132 48.4204 50.1959 47.36 51C46.2996 51.8041 46.0847 53.325 46.88 54.3971L55.84 66.4755C58.6724 70.2936 62.1346 72.6538 65.8916 73.2767C69.6718 73.9035 73.3845 72.7093 76.546 70.1334C77.578 69.2925 77.7404 67.765 76.9087 66.7215C76.077 65.6781 74.5661 65.5139 73.534 66.3548C71.2555 68.2113 68.8882 68.8558 66.6684 68.4877C64.4254 68.1158 61.9676 66.6475 59.68 63.5637L50.72 51.4853Z" fill="#5A86FD"/>
</svg>
