<svg width="23" height="23" viewBox="0 0 23 23" fill="none" xmlns="http://www.w3.org/2000/svg">
<path fill-rule="evenodd" clip-rule="evenodd" d="M1.91797 11.5C1.91797 6.20723 6.20857 1.91663 11.5013 1.91663C16.794 1.91663 21.0846 6.20723 21.0846 11.5C21.0846 16.7927 16.794 21.0833 11.5013 21.0833C6.20857 21.0833 1.91797 16.7927 1.91797 11.5ZM11.5013 3.83329C7.26712 3.83329 3.83464 7.26578 3.83464 11.5C3.83464 15.7341 7.26712 19.1666 11.5013 19.1666C15.7355 19.1666 19.168 15.7341 19.168 11.5C19.168 7.26578 15.7355 3.83329 11.5013 3.83329Z" fill="#246DFF"/>
<path fill-rule="evenodd" clip-rule="evenodd" d="M15.9455 7.88877C16.3521 8.2276 16.4071 8.83189 16.0682 9.23849L11.2766 14.9885C11.1093 15.1892 10.8673 15.313 10.6066 15.331C10.3459 15.3491 10.0891 15.2599 9.89573 15.0841L7.02073 12.4705C6.6291 12.1144 6.60023 11.5083 6.95626 11.1167C7.31229 10.7251 7.91839 10.6962 8.31002 11.0522L10.4447 12.9928L14.5958 8.01147C14.9347 7.60487 15.5389 7.54994 15.9455 7.88877Z" fill="#246DFF"/>
</svg>
