<svg width="23" height="23" viewBox="0 0 23 23" fill="none" xmlns="http://www.w3.org/2000/svg">
<g opacity="0.4">
<path fill-rule="evenodd" clip-rule="evenodd" d="M1.91797 11.5C1.91797 6.20723 6.20857 1.91663 11.5013 1.91663C16.794 1.91663 21.0846 6.20723 21.0846 11.5C21.0846 16.7927 16.794 21.0833 11.5013 21.0833C6.20857 21.0833 1.91797 16.7927 1.91797 11.5ZM11.5013 3.83329C7.26712 3.83329 3.83464 7.26578 3.83464 11.5C3.83464 15.7341 7.26712 19.1666 11.5013 19.1666C15.7355 19.1666 19.168 15.7341 19.168 11.5C19.168 7.26578 15.7355 3.83329 11.5013 3.83329Z" fill="#246DFF"/>
<path fill-rule="evenodd" clip-rule="evenodd" d="M7.94866 7.94732C8.32291 7.57306 8.92969 7.57306 9.30395 7.94732L11.5013 10.1447L13.6987 7.94732C14.0729 7.57306 14.6797 7.57306 15.0539 7.94732C15.4282 8.32157 15.4282 8.92835 15.0539 9.3026L12.8566 11.5L15.0539 13.6973C15.4282 14.0716 15.4282 14.6784 15.0539 15.0526C14.6797 15.4269 14.0729 15.4269 13.6987 15.0526L11.5013 12.8552L9.30395 15.0526C8.92969 15.4269 8.32291 15.4269 7.94866 15.0526C7.57441 14.6784 7.57441 14.0716 7.94866 13.6973L10.146 11.5L7.94866 9.3026C7.57441 8.92835 7.57441 8.32157 7.94866 7.94732Z" fill="#246DFF"/>
</g>
</svg>
