<svg width="1508" height="47" viewBox="0 0 1508 47" fill="none" xmlns="http://www.w3.org/2000/svg">
<line x1="0.507813" y1="46.5" x2="1508.51" y2="46.5001" stroke="#246DFF"/>
<path d="M0 47C0.333333 47 0.666667 47 1 47C0.991667 46.2167 0.983333 45.4333 0.975 44.65C0.825 30.55 0.675001 16.45 0.525001 2.35C0.516668 1.56667 0.508334 0.783337 0.500001 0C0.491668 0.783337 0.483334 1.56667 0.475001 2.35C0.325001 16.45 0.175 30.55 0.0250001 44.65C0.0166667 45.4333 0.00833334 46.2167 0 47Z" fill="#246DFF"/>
<path d="M426 47C426.333 47 426.667 47 427 47C426.992 46.2167 426.983 45.4333 426.975 44.65C426.825 30.55 426.675 16.45 426.525 2.35C426.517 1.56667 426.508 0.783337 426.5 0C426.492 0.783337 426.483 1.56667 426.475 2.35C426.325 16.45 426.175 30.55 426.025 44.65C426.017 45.4333 426.008 46.2167 426 47Z" fill="#246DFF"/>
<path d="M852 47C852.333 47 852.667 47 853 47C852.992 46.2167 852.983 45.4333 852.975 44.65C852.825 30.55 852.675 16.45 852.525 2.35C852.517 1.56667 852.508 0.783337 852.5 0C852.492 0.783337 852.483 1.56667 852.475 2.35C852.325 16.45 852.175 30.55 852.025 44.65C852.017 45.4333 852.008 46.2167 852 47Z" fill="#246DFF"/>
<path d="M1278 47C1278.33 47 1278.67 47 1279 47C1278.99 46.2167 1278.98 45.4333 1278.98 44.65C1278.83 30.55 1278.68 16.45 1278.53 2.35C1278.52 1.56667 1278.51 0.783337 1278.5 0C1278.49 0.783337 1278.48 1.56667 1278.48 2.35C1278.33 16.45 1278.18 30.55 1278.03 44.65C1278.02 45.4333 1278.01 46.2167 1278 47Z" fill="#246DFF"/>
</svg>
