<?xml version="1.0" encoding="utf-8"?><svg viewBox="0 0 28 28" xmlns="http://www.w3.org/2000/svg" xmlns:xlink="http://www.w3.org/1999/xlink"><style>:root>svg{display:none}:root>svg:target{display:block}</style><svg viewBox="0 0 21 18" id="address" xmlns="http://www.w3.org/2000/svg"><path fill-rule="evenodd" clip-rule="evenodd" d="M6.5 0h5a3 3 0 013 3v12a3 3 0 01-3 3h-.25v-1.5a2.25 2.25 0 00-4.5 0V18H6.5a3 3 0 01-3-3V3a3 3 0 013-3zm0 2.75a.75.75 0 000 1.5h1a.75.75 0 000-1.5h-1zm3.25.75a.75.75 0 01.75-.75h1a.75.75 0 010 1.5h-1a.75.75 0 01-.75-.75zM6.5 5.75a.75.75 0 000 1.5h1a.75.75 0 000-1.5h-1zM5.75 9.5a.75.75 0 01.75-.75h1a.75.75 0 010 1.5h-1a.75.75 0 01-.75-.75zm.75 2.25a.75.75 0 000 1.5h1a.75.75 0 000-1.5h-1zM9.75 6.5a.75.75 0 01.75-.75h1a.75.75 0 010 1.5h-1a.75.75 0 01-.75-.75zm.75 2.25a.75.75 0 000 1.5h1a.75.75 0 000-1.5h-1zm-.75 3.75a.75.75 0 01.75-.75h1a.75.75 0 010 1.5h-1a.75.75 0 01-.75-.75z"/><path d="M8.25 18v-1.5a.75.75 0 011.5 0V18h-1.5zM2.5 6.542A3 3 0 000 9.5v4.74a3 3 0 003 3h.5v-.004c-.614-.55-1-1.348-1-2.236V6.541zm16.25 6.644a21.825 21.825 0 00.605-1.265c.352-.804.764-1.885.889-2.822.266-2.007-.61-3.635-1.177-4.455a1.285 1.285 0 00-2.134 0c-.567.82-1.443 2.448-1.176 4.455.124.937.536 2.018.888 2.822a21.825 21.825 0 00.605 1.265V17a.75.75 0 101.5 0v-3.814z"/></svg><svg viewBox="0 0 19 17" id="agent" xmlns="http://www.w3.org/2000/svg"><path d="M2.956 2A2 2 0 015.279.027l3.465.567a2 2 0 00.646 0l3.465-.567A2 2 0 0115.178 2v1.897H2.956V2zm-.68 3.397h13.582c.032.028.065.055.1.08l1.785 1.378c.756.582.344 1.792-.61 1.792H1.001c-.954 0-1.366-1.21-.61-1.792l1.785-1.377c.034-.026.067-.053.099-.081z"/><path fill-rule="evenodd" clip-rule="evenodd" d="M4.567 10.396a3.25 3.25 0 103.206 3.787 6.19 6.19 0 01.216-.07c.388-.122.796-.216 1.078-.216.282 0 .69.094 1.078.215l.216.071a3.25 3.25 0 10.113-1.538c-.401-.12-.932-.248-1.407-.248s-1.006.128-1.408.248a3.251 3.251 0 00-3.092-2.248zm-1.75 3.25a1.75 1.75 0 113.5 0 1.75 1.75 0 01-3.5 0zm9 0a1.75 1.75 0 113.5 0 1.75 1.75 0 01-3.5 0z"/></svg><svg viewBox="0 0 28 28" id="arrow-next" xmlns="http://www.w3.org/2000/svg"><path fill-rule="evenodd" clip-rule="evenodd" d="M28 14c0-5.234 0-7.85-1.125-9.8A8.4 8.4 0 0023.8 1.125C21.85 0 19.234 0 14 0 8.766 0 6.15 0 4.2 1.125A8.4 8.4 0 001.125 4.2C0 6.15 0 8.766 0 14c0 5.234 0 7.85 1.125 9.8A8.4 8.4 0 004.2 26.875C6.15 28 8.766 28 14 28c5.234 0 7.85 0 9.8-1.125a8.399 8.399 0 003.075-3.075C28 21.85 28 19.234 28 14zm-16.142 4.858a1.05 1.05 0 001.484 1.485l3.62-3.62a3.85 3.85 0 000-5.445l-3.62-3.62a1.05 1.05 0 00-1.485 1.484l3.62 3.62a1.75 1.75 0 010 2.475l-3.62 3.62z"/></svg><svg viewBox="0 0 28 28" id="arrow-prev" xmlns="http://www.w3.org/2000/svg"><path fill-rule="evenodd" clip-rule="evenodd" d="M28 14c0-5.234 0-7.85-1.125-9.8A8.4 8.4 0 0023.8 1.125C21.85 0 19.234 0 14 0 8.766 0 6.15 0 4.2 1.125A8.4 8.4 0 001.125 4.2C0 6.15 0 8.766 0 14c0 5.234 0 7.85 1.125 9.8A8.4 8.4 0 004.2 26.875C6.15 28 8.766 28 14 28c5.234 0 7.85 0 9.8-1.125a8.399 8.399 0 003.075-3.075C28 21.85 28 19.234 28 14zm-11.858 4.858a1.05 1.05 0 01-1.484 1.485l-3.62-3.62a3.85 3.85 0 010-5.445l3.62-3.62a1.05 1.05 0 011.484 1.484l-3.62 3.62a1.75 1.75 0 000 2.475l3.62 3.62z"/></svg><svg viewBox="0 0 23 23" id="auth" xmlns="http://www.w3.org/2000/svg"><path fill-rule="evenodd" clip-rule="evenodd" d="M1.914 6.708a4.792 4.792 0 014.792-4.791h9.583a4.792 4.792 0 014.792 4.791v9.584a4.792 4.792 0 01-4.792 4.791H6.706a4.792 4.792 0 01-4.792-4.791V6.708zm4.792-2.875A2.875 2.875 0 003.83 6.708v9.584a2.875 2.875 0 002.875 2.875h9.583a2.875 2.875 0 002.875-2.875V6.708a2.875 2.875 0 00-2.875-2.875H6.706z"/><path fill-rule="evenodd" clip-rule="evenodd" d="M11.497 7.667a1.917 1.917 0 100 3.833 1.917 1.917 0 000-3.833zM7.664 9.583a3.833 3.833 0 117.667 0 3.833 3.833 0 01-7.667 0z"/><path fill-rule="evenodd" clip-rule="evenodd" d="M11.499 16.292a5.752 5.752 0 00-5.373 3.696l-1.79-.684a7.67 7.67 0 0114.326 0l-1.79.684a5.752 5.752 0 00-5.373-3.696z"/></svg><svg viewBox="0 0 19 19" id="bussines" xmlns="http://www.w3.org/2000/svg"><path d="M15.07 10.786a2.745 2.745 0 00-2.59-.072l-.395.197a5.07 5.07 0 01-4.535 0l-.395-.197a2.745 2.745 0 00-2.59.072l-.31.177a3.663 3.663 0 01-1.792.483l.439 3.728a4 4 0 003.972 3.533h.193v-3a2.75 2.75 0 115.5 0v3h.693a4 4 0 003.973-3.533l.442-3.758a3.666 3.666 0 01-2.295-.453l-.31-.177z"/><path d="M11.067 18.707v-3a1.25 1.25 0 10-2.5 0v3h2.5zM12.013.573L10.803.37a6 6 0 00-1.972 0L7.607.575l-.044.444-1.001 7.627v.004l-.052.403.624.312a6 6 0 005.367 0l.624-.312-.051-.403v-.004l-1-7.615-.061-.458zm2.64 8.611l1.89 1.08a1.444 1.444 0 002.146-1.458l-.745-5.214a2 2 0 00-.87-1.381L15.32 1.043a2 2 0 00-1.11-.336h-.667l.017.128 1 7.623.092.726zm-9.671 0l.091-.726v-.004l1-7.607.013-.14h-.663a2 2 0 00-1.11.336L2.563 2.21a2 2 0 00-.871 1.38L.946 8.807a1.444 1.444 0 002.146 1.458l1.89-1.08z"/></svg><svg viewBox="0 0 20 19" id="car" xmlns="http://www.w3.org/2000/svg"><path fill-rule="evenodd" clip-rule="evenodd" d="M.75 12.966v-2.005a2 2 0 01.08-.563l-.475-.294a.75.75 0 01.79-1.275l.144.089 1.589-5.135A4 4 0 016.699.966h6.102a4 4 0 013.821 2.817l1.589 5.133.142-.087a.75.75 0 11.79 1.275l-.474.293a2 2 0 01.081.564v2.005c0 .675-.334 1.271-.846 1.634a.742.742 0 01.096.366v1.5a1.75 1.75 0 01-1.75 1.75h-1a1.75 1.75 0 01-1.75-1.75v-1.5H6v1.5a1.75 1.75 0 01-1.75 1.75h-1a1.75 1.75 0 01-1.75-1.75v-1.5c0-.133.035-.258.096-.366a1.998 1.998 0 01-.846-1.634zM5.59 5.27l-.6 3a1 1 0 00.98 1.196h7.56a1 1 0 00.98-1.196l-.6-3a1 1 0 00-.98-.804H6.57a1 1 0 00-.98.804zM6 11.966a.75.75 0 01.75-.75h6a.75.75 0 010 1.5h-6a.75.75 0 01-.75-.75z"/></svg><svg viewBox="0 0 23 23" id="checkbox" xmlns="http://www.w3.org/2000/svg"><path d="M20.555 7.858c.05 1.007.05 2.204.05 3.642 0 4.292 0 6.438-1.334 7.77-1.333 1.334-3.479 1.334-7.77 1.334-4.292 0-6.438 0-7.771-1.333-1.334-1.333-1.334-3.48-1.334-7.771 0-4.292 0-6.438 1.334-7.77 1.333-1.334 3.479-1.334 7.77-1.334 1.028 0 1.932 0 2.732.018"/><path d="M7.666 11.02s1.438 0 3.354 3.355c0 0 4.848-8.785 9.584-10.542"/></svg><svg viewBox="0 0 20 21" id="child" xmlns="http://www.w3.org/2000/svg"><path d="M9.37 16.65a.75.75 0 10-.833 1.248 3.454 3.454 0 003.832 0 .75.75 0 10-.832-1.248 1.954 1.954 0 01-2.168 0zm-.417-3.376a1.5 1.5 0 11-3 0 1.5 1.5 0 013 0z"/><path fill-rule="evenodd" clip-rule="evenodd" d="M9.97.775a.75.75 0 01.04-.001c2.342 0 4.946.518 6.895 2.397 1.962 1.892 3.11 5.016 2.854 9.892a.75.75 0 01-1.257.513c-.462 2.166-1.506 3.806-2.813 4.97-1.736 1.549-3.902 2.228-5.68 2.228-1.763 0-3.575-.548-5.002-1.814C3.858 17.94 3 16.493 2.603 14.592c-.26.134-.59.219-.955.1-.503-.166-.76-.623-.903-.992-.157-.404-.267-.936-.348-1.583C.146 10.11.086 9.06.107 8.435a4.14 4.14 0 01.154-.999L.27 7.4c.266-1.598.797-2.835 1.53-3.781.733-.948 1.642-1.568 2.606-1.974C6.06.947 7.936.865 9.395.8c.2-.008.393-.017.575-.026zM3.927 13.379c.236 2.11 1.041 3.541 2.075 4.458 1.109.984 2.547 1.437 4.008 1.437 1.429 0 3.234-.557 4.681-1.847 1.312-1.17 2.36-2.969 2.541-5.587-1.153.094-2.118.16-3.003.15a1.5 1.5 0 11-1.377-.091 9.922 9.922 0 01-.325-.048c-1.394-.226-2.729-.753-4.56-1.725-.334.611-.906 1.1-1.445 1.5a27.3 27.3 0 01-1.344.913l-.101.066a34.51 34.51 0 00-1.15.774z"/></svg><svg viewBox="0 0 13 14" id="clock" xmlns="http://www.w3.org/2000/svg"><path d="M2.836 1.482c.293-.277.308-.731-.06-.867a1.896 1.896 0 00-.708-.114 2.017 2.017 0 00-1.33.55 1.9 1.9 0 00-.42.581c-.1.216-.155.446-.162.676a1.63 1.63 0 00.121.67c.144.347.624.334.917.056l1.642-1.552z"/><path fill-rule="evenodd" clip-rule="evenodd" d="M6.5 13.5c3.59 0 6.5-2.751 6.5-6.145C13 3.96 10.09 1.21 6.5 1.21S0 3.96 0 7.355C0 10.749 2.91 13.5 6.5 13.5zm.542-9.56c0-.282-.243-.511-.542-.511-.3 0-.542.229-.542.512v4.097c0 .282.243.512.542.512h2.889c.299 0 .542-.23.542-.512 0-.283-.243-.513-.542-.513H7.042V3.941z"/><path d="M10.228.615c-.368.136-.354.59-.06.867l1.641 1.552c.293.278.773.291.917-.057.087-.21.128-.438.121-.669a1.735 1.735 0 00-.162-.676 1.9 1.9 0 00-.42-.581 2.018 2.018 0 00-1.33-.55 1.895 1.895 0 00-.707.114z"/></svg><svg viewBox="0 0 20 18" id="compPerson" xmlns="http://www.w3.org/2000/svg"><path d="M10 9a4.5 4.5 0 100-9 4.5 4.5 0 000 9zm0 9c3.976 0 7.2-1.813 7.2-4.05S13.977 9.9 10 9.9c-3.976 0-7.2 1.813-7.2 4.05S6.024 18 10 18z"/><path d="M16.5 4.5a2.006 2.006 0 00-1.267-1.862l-.026-.01a1.48 1.48 0 01-.267-.144c-.252-.174-.44-.43-.44-.734 0-.414.34-.758.745-.67A3.506 3.506 0 0118 4.5a3.496 3.496 0 01-2.755 3.42c-.405.088-.745-.256-.745-.67 0-.304.188-.56.44-.733a1.436 1.436 0 01.267-.145l.026-.01A2.006 2.006 0 0016.5 4.5zm2 9c0 .087-.046.284-.275.537a2.36 2.36 0 01-.336.3 1.108 1.108 0 00-.145.13.866.866 0 00-.244.587c0 .572.587.959 1.063.641.077-.051.151-.104.223-.158l.029-.021a3.89 3.89 0 00.566-.524c.397-.452.62-.958.62-1.492s-.223-1.04-.62-1.492a3.9 3.9 0 00-.566-.524l-.03-.021a4.886 4.886 0 00-.222-.158c-.476-.318-1.063.069-1.063.641 0 .221.095.426.244.586a1.093 1.093 0 00.145.13c.141.107.251.207.336.3.23.254.275.45.275.538zm-15-9a2.006 2.006 0 011.267-1.862l.026-.01a1.49 1.49 0 00.267-.145c.252-.174.44-.429.44-.733 0-.414-.34-.759-.745-.67A3.506 3.506 0 002 4.5a3.495 3.495 0 002.755 3.42c.405.088.745-.256.745-.67 0-.305-.188-.56-.44-.734a1.424 1.424 0 00-.267-.144l-.026-.01A2.006 2.006 0 013.5 4.5zm-2 9c0 .087.046.284.275.537.085.093.195.194.336.3a1.1 1.1 0 01.146.13.872.872 0 01.243.587c0 .572-.587.959-1.063.64a4.972 4.972 0 01-.223-.157l-.029-.022a3.883 3.883 0 01-.566-.523C.222 14.54 0 14.034 0 13.5s.222-1.04.619-1.492c.16-.184.35-.36.566-.524l.03-.022c.07-.053.145-.106.222-.157.476-.318 1.063.069 1.063.64a.866.866 0 01-.243.587 1.069 1.069 0 01-.146.13 2.354 2.354 0 00-.336.3c-.23.254-.275.45-.275.538z"/></svg><svg viewBox="0 0 14 14" id="date" xmlns="http://www.w3.org/2000/svg"><path fill-rule="evenodd" clip-rule="evenodd" d="M9.975.5h-5.95v2.053a.52.52 0 01-.525.513.52.52 0 01-.525-.513V.5H2.8C1.254.5 0 1.725 0 3.237v7.526C0 12.275 1.254 13.5 2.8 13.5h8.4c1.546 0 2.8-1.225 2.8-2.737V3.237C14 1.725 12.746.5 11.2.5h-.175v2.053a.52.52 0 01-.525.513.52.52 0 01-.525-.513V.5zM3.5 5.974c.387 0 .7-.307.7-.685a.692.692 0 00-.7-.684c-.387 0-.7.307-.7.684 0 .378.313.685.7.685zm4.2-.685a.692.692 0 01-.7.685.692.692 0 01-.7-.685c0-.377.313-.684.7-.684.387 0 .7.307.7.684zm2.8.685c.387 0 .7-.307.7-.685a.692.692 0 00-.7-.684c-.387 0-.7.307-.7.684 0 .378.313.685.7.685zm-6.3 1.71a.692.692 0 01-.7.684.692.692 0 01-.7-.684c0-.378.313-.684.7-.684.387 0 .7.306.7.684zm2.8.684c.387 0 .7-.306.7-.684A.692.692 0 007 7c-.387 0-.7.306-.7.684 0 .378.313.684.7.684zm4.2-.684a.692.692 0 01-.7.684.692.692 0 01-.7-.684c0-.378.313-.684.7-.684.387 0 .7.306.7.684zm-7.7 3.08c.387 0 .7-.307.7-.685a.692.692 0 00-.7-.684c-.387 0-.7.306-.7.684 0 .378.313.684.7.684zm4.2-.685a.692.692 0 01-.7.684.692.692 0 01-.7-.684c0-.378.313-.684.7-.684.387 0 .7.306.7.684zm2.8.684c.387 0 .7-.306.7-.684a.692.692 0 00-.7-.684c-.387 0-.7.306-.7.684 0 .378.313.684.7.684z"/></svg><svg viewBox="0 0 20 18" id="dis" xmlns="http://www.w3.org/2000/svg"><g opacity=".27"><path d="M19.62 12V2c0-.552-.367-1-.819-1h-2.863c-.452 0-.818.448-.818 1v10c0 .552.366 1 .818 1h2.864c.451 0 .818-.448.818-1z"/><path d="M6.407 12.147l-.774 1.94c-.664 1.666.804 3.397 2.556 3.015.305-.067.585-.217.81-.434L12.786 13l1.032-.799a4 4 0 001.55-3.162V4.755a4 4 0 00-1.928-3.422L12.193.578A4 4 0 0010.123 0H5.465a4 4 0 00-3.854 2.93L.074 8.464A2 2 0 002.001 11H5.63c.591 0 .996.597.777 1.147z"/></g></svg><svg viewBox="0 0 18 18" id="faq" xmlns="http://www.w3.org/2000/svg"><path d="M1.588 8.44C1.588 3.778 5.263 0 9.794 0S18 3.778 18 8.44v.32a9.17 9.17 0 01-.16 1.715c-.793-2.77-3.283-4.791-6.229-4.791-3.583 0-6.491 2.988-6.491 6.679v.187a6.91 6.91 0 001.636 4.508 9.563 9.563 0 01-.086-.03l-.578-.209-1.308-.249c-1.868-.242-3.108-.637-3.838-1.058-.347-.2-.68-.463-.843-.81a1.003 1.003 0 01-.063-.72.958.958 0 01.446-.553c.755-.437 1.098-.936 1.26-1.288a1.855 1.855 0 00.152-.52l-.31-3.145V8.44z"/><path fill-rule="evenodd" clip-rule="evenodd" d="M16.722 12.399l-.18 1.828v.005a.792.792 0 00.06.183c.07.153.232.4.624.627.15.087.319.244.394.494a.89.89 0 01-.053.638c-.135.285-.393.477-.612.604-.474.273-1.243.512-2.353.656l-.74.141-.32.115c-3.44 1.238-7.042-1.388-7.042-5.14v-.187c0-2.905 2.289-5.258 5.111-5.258 2.822 0 5.111 2.353 5.111 5.258v.036zm-7.186 1.337a.7.7 0 00.69-.71.7.7 0 00-.69-.71.7.7 0 00-.69.71.7.7 0 00.69.71zm2.3 0a.7.7 0 00.69-.71.7.7 0 00-.69-.71.7.7 0 00-.69.71.7.7 0 00.69.71zm2.99-.71a.7.7 0 01-.69.71.7.7 0 01-.69-.71.7.7 0 01.69-.71.7.7 0 01.69.71z"/></svg><svg viewBox="0 0 16 14" id="favorite" xmlns="http://www.w3.org/2000/svg"><path d="M15.847 6.315c-.781 3.404-5.35 6.421-7.134 7.486a1.376 1.376 0 01-1.426 0C5.502 12.736.934 9.719.153 6.315-.552 3.24 1.238.047 4.268 0h.19c1.22 0 2.31.627 2.948 1.091.349.253.84.253 1.188 0C9.232.627 10.322 0 11.54 0l.19.001c3.031.046 4.82 3.24 4.116 6.314z"/></svg><svg viewBox="0 0 20 18" id="folder" xmlns="http://www.w3.org/2000/svg"><path fill-rule="evenodd" clip-rule="evenodd" d="M4.75 0A4.75 4.75 0 00.01 5.046l.5 8A4.75 4.75 0 005.25 17.5h8.538c1.75 0 3.29-.95 4.114-2.375a.744.744 0 00.054-.113l1.12-3a2.949 2.949 0 00-.198-2.503.747.747 0 00.046-.259V7.919A4.596 4.596 0 0014.339 3h-2.347a.75.75 0 01-.75-.75A2.25 2.25 0 008.992 0H4.75zm7.763 8a.538.538 0 01-.531-.627A2.038 2.038 0 009.972 5H6.79a4.733 4.733 0 00-4.65 3.85l-.238 1.252-.058.273-.338-5.422A3.25 3.25 0 014.75 1.5h4.242a.75.75 0 01.75.75 2.25 2.25 0 002.25 2.25h2.347a3.096 3.096 0 013.087 3.334.789.789 0 00-.002.057v.33A2.968 2.968 0 0016.29 8h-3.777z"/></svg><svg viewBox="0 0 21 18" id="food" xmlns="http://www.w3.org/2000/svg"><path d="M7.521.482a.75.75 0 00-1.248.833c.132.197.32.553.428.929.115.398.099.671.025.82-.249.497-.389 1.082-.47 1.577a8.34 8.34 0 00-.109 1.258.75.75 0 001.5 0c0-.21.022-.596.09-1.018.07-.43.18-.845.33-1.147.327-.652.227-1.38.076-1.906A5.104 5.104 0 007.52.482zm11.376 15.417a8 8 0 10-16 0h-1.25a.75.75 0 000 1.5h18.5a.75.75 0 000-1.5h-1.25zM10.48.274a.75.75 0 011.041.208c.202.303.463.798.622 1.346.151.527.25 1.254-.075 1.906-.151.302-.261.717-.33 1.147-.07.422-.091.807-.091 1.018a.75.75 0 01-1.5 0c0-.29.028-.755.11-1.258.08-.495.22-1.08.47-1.578.073-.148.09-.42-.026-.82a3.609 3.609 0 00-.428-.928.75.75 0 01.208-1.04zm5.041.208a.75.75 0 00-1.248.833c.132.197.32.553.428.929.115.398.099.671.025.82-.249.497-.389 1.082-.47 1.577a8.34 8.34 0 00-.109 1.258.75.75 0 001.5 0c0-.21.022-.596.09-1.018.07-.43.18-.845.33-1.147.327-.652.227-1.38.076-1.906A5.103 5.103 0 0015.52.482z"/></svg><svg viewBox="0 0 21 17" id="franchiza" xmlns="http://www.w3.org/2000/svg"><path d="M17.13 8.199c.559-.418.953-.809 1.206-1.143a8 8 0 10-15.408 4.128c.386.163.923.304 1.617.387 1.703.203 4.038.02 6.568-.658 2.53-.678 4.643-1.687 6.016-2.714zm-5.24 5.611c2.33-.624 4.44-1.524 6.09-2.562a8.003 8.003 0 01-12.643 3.39c1.946.072 4.222-.203 6.552-.827z"/><path d="M1.531 10.892c-.073-.271-.026-.643.276-1.129a8.816 8.816 0 01-.041-2.207 6.966 6.966 0 00-1.084 1.19c-.535.763-.838 1.646-.6 2.534.214.797.804 1.374 1.53 1.767.724.391 1.643.636 2.667.758 2.052.245 4.68.014 7.416-.719 2.736-.733 5.128-1.848 6.782-3.085.826-.618 1.5-1.29 1.93-1.99.433-.704.656-1.498.443-2.295-.228-.85-.883-1.448-1.677-1.842a6.798 6.798 0 00-1.644-.542 8.74 8.74 0 01.91 1.557l.174.384c.494.268.716.562.788.831.072.27.027.637-.27 1.12-.3.486-.817 1.025-1.552 1.575-1.467 1.098-3.673 2.142-6.272 2.838-2.599.697-5.031.896-6.85.679-.912-.11-1.63-.318-2.132-.589-.5-.27-.722-.565-.794-.835z"/></svg><svg viewBox="0 0 20 18" id="hand-money" xmlns="http://www.w3.org/2000/svg"><path fill-rule="evenodd" clip-rule="evenodd" d="M17.53.625a.625.625 0 00-1.25 0V.63a2.125 2.125 0 000 4.228v1.67a1.09 1.09 0 01-.655-.998.625.625 0 10-1.25 0 2.34 2.34 0 001.905 2.299v.034a.625.625 0 001.25.006 2.125 2.125 0 000-4.25V1.896c.484.111.845.545.845 1.062a.625.625 0 101.25 0A2.34 2.34 0 0017.53.632V.625zm-1.905 2.119c0-.407.278-.75.655-.847v1.694a.875.875 0 01-.655-.847zm2.75 3a.875.875 0 01-.845.875v-1.75c.47.016.845.402.845.875z"/><path d="M0 6.625v10c0 .552.366 1 .818 1h2.864c.452 0 .818-.448.818-1V15.24c.264.145.595.17.9.015.373-.189.822-.108 1.171.122 2.828 1.863 10.558 2.206 13.132-3 .892-1.804-.311-1.49-2.482-.922-1.527.399-3.531.922-5.623.922-.511 0-5.037-.753 1.52-2.56l.112-.032c1.201-.334 1.225-1.462-.021-1.477-.567-.007-1.21.074-1.84.154-.841.107-1.657.21-2.232.094-.253-.05-.48-.18-.707-.308a3.752 3.752 0 00-.465-.236C7.1 7.67 6.324 7.577 5.66 7.647c-.503.053-.887.317-1.159.695V6.625c0-.552-.366-1-.818-1H.818c-.452 0-.818.448-.818 1z"/></svg><svg viewBox="0 0 18 19" id="home" xmlns="http://www.w3.org/2000/svg"><path d="M14.138 10.497a2.745 2.745 0 00-2.59-.072l-.395.197a5.07 5.07 0 01-4.534 0l-.395-.197a2.745 2.745 0 00-2.59.072l-.31.177a3.663 3.663 0 01-1.792.483l.438 3.728a4 4 0 003.973 3.532h.193v-3a2.75 2.75 0 115.5 0v3h.693a4 4 0 003.972-3.532l.443-3.759a3.666 3.666 0 01-2.295-.452l-.31-.177z"/><path d="M10.136 18.417v-3a1.25 1.25 0 10-2.5 0v3h2.5zM11.081.283L9.872.082a6 6 0 00-1.973 0L6.675.286 6.631.73 5.63 8.356v.004l-.051.404.624.312a6 6 0 005.366 0l.624-.312-.05-.404-.001-.004-1-7.615-.061-.458zm2.64 8.612l1.89 1.08a1.444 1.444 0 002.146-1.459l-.745-5.214a2 2 0 00-.87-1.38L14.39.752a2 2 0 00-1.11-.336h-.668l.018.129 1 7.623.091.726zm-9.671 0l.092-.726v-.004L5.141.557l.014-.14H4.49a2 2 0 00-1.109.336L1.63 1.921a2 2 0 00-.87 1.381L.014 8.516A1.444 1.444 0 002.16 9.974l1.89-1.08z"/></svg><svg viewBox="0 0 27 27" id="instagram" xmlns="http://www.w3.org/2000/svg"><path d="M13.5 18.9a4.725 4.725 0 100-9.45 4.725 4.725 0 000 9.45z"/><path fill-rule="evenodd" clip-rule="evenodd" d="M0 13.5c0-5.047 0-7.57 1.085-9.45A8.1 8.1 0 014.05 1.085C5.93 0 8.453 0 13.5 0s7.57 0 9.45 1.085a8.1 8.1 0 012.965 2.965C27 5.93 27 8.453 27 13.5s0 7.57-1.085 9.45a8.099 8.099 0 01-2.965 2.965C21.07 27 18.547 27 13.5 27s-7.57 0-9.45-1.085a8.1 8.1 0 01-2.965-2.965C0 21.07 0 18.547 0 13.5zm13.5 7.425a6.75 6.75 0 100-13.5 6.75 6.75 0 000 13.5zM19.575 8.1a2.025 2.025 0 100-4.05 2.025 2.025 0 000 4.05z"/></svg><svg viewBox="0 0 20 18" id="it" xmlns="http://www.w3.org/2000/svg"><path fill-rule="evenodd" clip-rule="evenodd" d="M4 .08h12a4 4 0 014 4v8a4 4 0 01-4 4H4a4 4 0 01-4-4v-8a4 4 0 014-4zm4.398 6.137a.75.75 0 00-.795-1.272L4.958 6.597a1.75 1.75 0 000 2.968l2.644 1.652a.75.75 0 10.795-1.272L5.754 8.293a.25.25 0 010-.424l2.644-1.652zm2.966-1.034a.75.75 0 00.238 1.034l2.644 1.652a.25.25 0 010 .424l-2.644 1.652a.75.75 0 10.796 1.272l2.643-1.652a1.75 1.75 0 000-2.968l-2.643-1.652a.75.75 0 00-1.034.238z"/><path d="M8 16.33a.75.75 0 000 1.5h4a.75.75 0 000-1.5H8z"/></svg><svg viewBox="0 0 20 18" id="like" xmlns="http://www.w3.org/2000/svg"><path opacity=".27" d="M13.986 3.068l-.773 1.94a.837.837 0 00.777 1.147h3.629a2 2 0 011.927 2.536l-1.538 5.535a4 4 0 01-3.854 2.93H9.497a4 4 0 01-2.071-.578l-1.248-.755a4 4 0 01-1.679-2.03v1.363c0 .552-.366 1-.818 1H.818c-.452 0-.818-.448-.818-1v-10c0-.553.366-1 .818-1h2.864c.452 0 .818.447.818 1v1.569a4 4 0 011.3-1.77l1.032-.8 3.79-3.668a1.67 1.67 0 01.809-.433c1.752-.383 3.22 1.349 2.555 3.014z"/></svg><svg viewBox="0 0 20 20" id="metro" xmlns="http://www.w3.org/2000/svg"><path fill-rule="evenodd" clip-rule="evenodd" d="M0 13.333C0 5.97 5.97 0 13.333 0H18a2 2 0 012 2v2h-3a2 2 0 00-2 2v5a2 2 0 002 2h3v5a2 2 0 01-2 2H6.667A6.667 6.667 0 010 13.333zm4-1.619A7.714 7.714 0 0111.714 4h.857C13.361 4 14 4.64 14 5.429V11a2 2 0 01-2 2H5.286C4.576 13 4 12.424 4 11.714zm1 2.536a.75.75 0 000 1.5h6a.75.75 0 000-1.5H5zm10.25.75a.75.75 0 01.75-.75h3a.75.75 0 010 1.5h-3a.75.75 0 01-.75-.75z"/></svg><svg viewBox="0 0 20 19" id="money" xmlns="http://www.w3.org/2000/svg"><path d="M2.85.004A3 3 0 00.01 2.75H1.6c.69 0 1.25-.56 1.25-1.25V.004zM0 4.25v5.5h.5V6.929c0-1.087.491-2.055 1.258-2.683a2.793 2.793 0 01-.158.004H0zm.5 8.409V11.25H.01c.043.518.217.999.49 1.409zM3.833 3.5h10.68a2.742 2.742 0 01-.863-2V0h-9.3v1.5c0 .799-.34 1.518-.885 2.02.121-.013.244-.02.368-.02zm14.157-.75A3 3 0 0015.15.004V1.5c0 .69.56 1.25 1.25 1.25h1.59zM4.75 5.01a3 3 0 00-2.74 2.74H3.5c.69 0 1.25-.56 1.25-1.25V5.01zM11 13.125c.703 0 1.2-.543 1.2-1.125s-.497-1.125-1.2-1.125-1.2.543-1.2 1.125.497 1.125 1.2 1.125z"/><path fill-rule="evenodd" clip-rule="evenodd" d="M2 9.25v5.5h1.6a2.75 2.75 0 012.75 2.75V19h9.3v-1.5a2.75 2.75 0 012.75-2.75H20v-5.5h-1.6a2.75 2.75 0 01-2.75-2.75V5h-9.4v1.5A2.75 2.75 0 013.5 9.25H2zm9 5.375c1.491 0 2.7-1.175 2.7-2.625S12.491 9.375 11 9.375 8.3 10.55 8.3 12s1.209 2.625 2.7 2.625z"/><path d="M4.85 18.996a3 3 0 01-2.84-2.746H3.6c.69 0 1.25.56 1.25 1.25v1.496zm12.3 0a3 3 0 002.84-2.746H18.4c-.69 0-1.25.56-1.25 1.25v1.496zM19.99 7.75a3 3 0 00-2.84-2.746V6.5c0 .69.56 1.25 1.25 1.25h1.59z"/></svg><svg viewBox="0 0 20 20" id="planet" xmlns="http://www.w3.org/2000/svg"><path d="M9.25 0a9.94 9.94 0 00-3.5.918V4.8c1.202-.26 2.44-.474 3.5-.55V0zm0 5.755c-1.026.08-2.27.306-3.5.58v7.274c1.23.274 2.474.5 3.5.58V5.756zm1.5 8.435V5.755c1.026.08 2.27.306 3.5.58v7.274c-1.23.274-2.474.5-3.5.58zm-1.5 1.504c-1.06-.075-2.298-.29-3.5-.55v3.883a9.94 9.94 0 003.5.918v-4.251zm1.5 4.251v-4.251c1.06-.075 2.298-.29 3.5-.55v3.883a9.94 9.94 0 01-3.5.918zm0-15.695V0a9.94 9.94 0 013.5.918V4.8c-1.202-.26-2.44-.474-3.5-.55zm8.474 9.592a10.037 10.037 0 01-3.474 4.313v-3.358a71.971 71.971 0 003.474-.955zm-3.451-.597l-.023.006V6.693l.023.006a70.396 70.396 0 013.432.967l.051.016.013.004.505.16a10.039 10.039 0 010 4.252l-.518.165-.051.016a59.97 59.97 0 01-.947.286c-.633.186-1.51.433-2.485.68zm.369-8l-.392-.098V1.79a10.036 10.036 0 013.474 4.312l-.544-.162c-.646-.19-1.54-.442-2.538-.695zM4.25 18.155v-3.358a71.986 71.986 0 01-3.474-.955 10.036 10.036 0 003.474 4.313zm0-4.904l-.023-.006a70.394 70.394 0 01-3.432-.966l-.051-.016-.013-.004-.505-.161a10.037 10.037 0 010-4.251l.505-.161.013-.004.051-.016.201-.063a70.449 70.449 0 013.23-.904l.024-.006v6.558zm0-11.461v3.357l-.392.098a71.928 71.928 0 00-3.082.857A10.036 10.036 0 014.25 1.79z"/></svg><svg viewBox="0 0 18 21" id="play" xmlns="http://www.w3.org/2000/svg"><path d="M5.967 4.919a3.483 3.483 0 116.757 0l-.168.672h2.54a2.75 2.75 0 012.75 2.75v7.5a4.75 4.75 0 01-4.75 4.75h-9.5a2.75 2.75 0 01-2.75-2.75v-2.5a.75.75 0 01.931-.727l1.605.4a1.983 1.983 0 100-3.846l-1.605.4a.75.75 0 01-.932-.727v-3.5c0-.966.784-1.75 1.75-1.75h3.54l-.168-.672z"/></svg><svg viewBox="0 0 14 14" id="plus" xmlns="http://www.w3.org/2000/svg"><path d="M7.629 1.129a.629.629 0 00-1.258 0v5.242H1.129a.629.629 0 000 1.258h5.242v5.242a.629.629 0 001.258 0V7.629h5.242a.629.629 0 000-1.258H7.629V1.129z"/></svg><svg viewBox="0 0 18 19" id="project" xmlns="http://www.w3.org/2000/svg"><path d="M5.72 2.28l.125.075c.283.17 1.082.45 2.182.533 1.067.08 2.344-.034 3.599-.563.193-.11.421-.23.674-.352l.659-1.975-2 1-2-1-2 1-2-1 .76 2.282zm2.519 6.99a.875.875 0 000 1.694V9.27zm1.25 4.722a.875.875 0 000-1.75v1.75z"/><path fill-rule="evenodd" clip-rule="evenodd" d="M12.806 3.396a9.822 9.822 0 00-.475.253.755.755 0 01-.077.038c-1.533.657-3.075.79-4.339.696-1.241-.092-2.292-.412-2.842-.742l-.188-.113C-.727 6.95-1.881 18.527 8.959 18.998 19.942 18.52 18.61 6.64 12.806 3.396zM8.864 7.373c.345 0 .624.28.624.625v.007a2.34 2.34 0 012.096 2.326.625.625 0 11-1.25 0 1.09 1.09 0 00-.845-1.061v1.722a2.125 2.125 0 010 4.25.625.625 0 01-1.25-.006v-.034a2.34 2.34 0 01-1.905-2.3.625.625 0 111.25 0c0 .448.27.832.655 1v-1.671a2.125 2.125 0 010-4.228v-.005c0-.345.28-.625.624-.625z"/><path d="M13.735 2.981c.58-.23 1.188-.413 1.723-.48.558-.07.905.001 1.085.121a.75.75 0 10.832-1.248c-.63-.42-1.422-.448-2.105-.361-.706.089-1.443.319-2.087.573a.75.75 0 10.552 1.395z"/></svg><svg viewBox="0 0 23 23" id="register" xmlns="http://www.w3.org/2000/svg"><path fill-rule="evenodd" clip-rule="evenodd" d="M6.706 3.833A2.875 2.875 0 003.83 6.708v9.584a2.875 2.875 0 002.875 2.875h9.583a2.875 2.875 0 002.875-2.875v-5.75a.958.958 0 111.917 0v5.75a4.792 4.792 0 01-4.792 4.791H6.706a4.792 4.792 0 01-4.792-4.791V6.708a4.792 4.792 0 014.792-4.791h5.75a.958.958 0 110 1.916h-5.75z"/><path fill-rule="evenodd" clip-rule="evenodd" d="M18.395 3.833a.77.77 0 00-.544.226l-7.549 7.548-.362 1.45 1.45-.362 7.549-7.549a.77.77 0 00-.544-1.313zm-1.9-1.13a2.686 2.686 0 113.8 3.799l-7.738 7.736a.958.958 0 01-.445.252l-3.257.815a.958.958 0 01-1.162-1.162l.814-3.258a.958.958 0 01.252-.445l7.737-7.737z"/><path fill-rule="evenodd" clip-rule="evenodd" d="M14.656 5.072a.958.958 0 011.355 0l1.917 1.917a.958.958 0 11-1.356 1.355l-1.916-1.916a.958.958 0 010-1.356z"/></svg><svg viewBox="0 0 20 19" id="rem" xmlns="http://www.w3.org/2000/svg"><path d="M15.84 3.17l.002.002a.75.75 0 01-.017 1.043l-3.22 3.22.004.004L9.05 11l-.005-.003-1.22 1.22a.75.75 0 01-1.06 0l-4-4a.75.75 0 010-1.061l5.5-5.5a.751.751 0 01.324-.191l.004-.001.008-.003.028-.007a9.789 9.789 0 01.47-.119c.306-.072.732-.162 1.204-.233.47-.07 1-.125 1.515-.121.503.004 1.053.064 1.523.266.627.27 1.264.775 1.708 1.166a13.403 13.403 0 01.775.741l.013.014.004.003zm-5.73 8.89l3.56-3.56 5.405 5.405a2.518 2.518 0 01-3.561 3.56l-5.405-5.404zM2.075 9.405a.75.75 0 00-1.061 1.06l3.5 3.5a.75.75 0 101.06-1.06l-3.5-3.5z"/></svg><svg viewBox="0 0 18 16" id="review" xmlns="http://www.w3.org/2000/svg"><path fill-rule="evenodd" clip-rule="evenodd" d="M3.385 16c-.438-.49-.685-1.043-.685-1.63 0-1.984 2.82-3.593 6.3-3.593s6.3 1.609 6.3 3.593c0 .587-.247 1.14-.684 1.63A8.957 8.957 0 0018 8.981C18 4.021 13.97 0 9 0S0 4.021 0 8.981A8.957 8.957 0 003.385 16zm9.552-10.275c0 2.17-1.762 3.93-3.937 3.93a3.933 3.933 0 01-3.938-3.93A3.933 3.933 0 019 1.796a3.933 3.933 0 013.937 3.93z"/></svg><svg viewBox="0 0 18 18" id="rocket" xmlns="http://www.w3.org/2000/svg"><path fill-rule="evenodd" clip-rule="evenodd" d="M18 2.728A2.734 2.734 0 0015.295.002c-1.988-.038-4.81.55-7.932 2.594a2.744 2.744 0 00-.915-.27c-.532-.066-1.14-.018-1.778.141-1.27.317-2.728 1.09-4.083 2.427a1.59 1.59 0 00-.572.982c-.065.425.06.92.503 1.248.407.301.963.372 1.581.295l.038-.005c-.317.47-.537.94-.542 1.395-.003.254.061.5.205.717.14.21.329.354.516.452.356.186.795.251 1.193.278.539.037 1.208.008 1.828-.02.287-.011.564-.024.812-.028.421-.008.777.001 1.054.043.29.044.377.108.382.112.004.005.067.092.109.383.04.277.047.634.035 1.055-.007.248-.02.525-.035.812-.032.62-.066 1.29-.034 1.83.024.398.087.837.27 1.195.096.189.238.379.447.52.215.146.461.212.715.211.46-.002.937-.223 1.414-.543l-.008.062c-.082.618-.015 1.175.283 1.585.325.446.818.575 1.243.512a1.59 1.59 0 00.986-.564c1.345-1.346 2.13-2.798 2.456-4.067.164-.638.217-1.246.154-1.778a2.733 2.733 0 00-.271-.937C17.412 7.535 18.02 4.72 18 2.73zM5 3.786c.33-.082.629-.122.889-.128A24.44 24.44 0 003.85 5.456c-.868.388-1.491.562-1.918.615-.33.04-.496.004-.565-.02a.242.242 0 01.074-.1c.026-.02.05-.04.073-.063C2.722 4.689 3.979 4.04 5 3.786zm6.845 12.28c.056-.427.234-1.049.629-1.915.679-.68 1.28-1.357 1.813-2.025-.009.26-.05.56-.135.889-.263 1.02-.92 2.272-2.127 3.47a.677.677 0 00-.064.073.241.241 0 01-.1.074c-.024-.07-.06-.236-.016-.566zm.08-10.011a1.81 1.81 0 002.56.01c.71-.705.715-1.853.01-2.563a1.81 1.81 0 00-2.56-.01 1.813 1.813 0 00-.01 2.563z"/><path d="M5.114 10.685a2.132 2.132 0 01.545 4.192l-1.17.314a1.439 1.439 0 01-1.76-1.774l.324-1.168a2.131 2.131 0 012.061-1.564z"/></svg><svg viewBox="0 0 19 19" id="royal" xmlns="http://www.w3.org/2000/svg"><path d="M10.888.426a.652.652 0 011.224 0l.29.786c.067.179.208.32.386.385l.786.291a.652.652 0 010 1.224l-.786.29a.652.652 0 00-.385.386l-.291.786a.652.652 0 01-1.224 0l-.29-.786a.652.652 0 00-.386-.385l-.786-.291a.652.652 0 010-1.224l.786-.29a.652.652 0 00.385-.386l.291-.786zM9 12a2 2 0 11-4 0 2 2 0 014 0z"/><path fill-rule="evenodd" clip-rule="evenodd" d="M2.381 8.2a1.4 1.4 0 01.513-1.912l1.212-.7A1.4 1.4 0 016.02 6.1a1.133 1.133 0 001.962 0 1.4 1.4 0 011.913-.512l1.212.7A1.4 1.4 0 0111.62 8.2c-.437.756.109 1.7.981 1.7a1.4 1.4 0 011.4 1.4v1.4a1.4 1.4 0 01-1.4 1.4c-.872 0-1.418.944-.981 1.7a1.4 1.4 0 01-.513 1.912l-1.212.7A1.4 1.4 0 017.98 17.9a1.133 1.133 0 00-1.962 0 1.4 1.4 0 01-1.913.512l-1.212-.7A1.4 1.4 0 012.38 15.8a1.133 1.133 0 00-.981-1.7A1.4 1.4 0 010 12.7v-1.4a1.4 1.4 0 011.4-1.4c.872 0 1.417-.944.981-1.7zM10.5 12a3.5 3.5 0 11-7 0 3.5 3.5 0 017 0z"/><path d="M16.734 5.511c-.252-.681-1.216-.681-1.468 0l-.35.943a.783.783 0 01-.462.463l-.943.349c-.681.252-.681 1.216 0 1.468l.943.35a.775.775 0 01.463.462l.349.943c.252.681 1.216.681 1.468 0l.35-.943a.783.783 0 01.462-.463l.943-.349c.681-.252.681-1.216 0-1.468l-.943-.35a.783.783 0 01-.463-.462l-.349-.943z"/></svg><svg viewBox="0 0 13 13" id="search" xmlns="http://www.w3.org/2000/svg"><path fill-rule="evenodd" clip-rule="evenodd" d="M9.015 10.095c-.069-.06-.174-.085-.249-.031a5.547 5.547 0 11.931-.838c-.023.027-.018.068.008.092l3.12 2.773a.52.52 0 01-.69.778l-3.12-2.774zm1.038-4.548a4.507 4.507 0 11-9.013 0 4.507 4.507 0 019.013 0z"/></svg><svg viewBox="0 0 16 12" id="send" xmlns="http://www.w3.org/2000/svg"><path fill-rule="evenodd" clip-rule="evenodd" d="M3.2 0h9.6C14.567 0 16 1.343 16 3v6c0 1.657-1.433 3-3.2 3H3.2C1.433 12 0 10.657 0 9V3c0-1.657 1.433-3 3.2-3zm.48 1.913a.627.627 0 00-.84-.113.54.54 0 00-.12.787l2.24 2.8c1.52 1.9 4.56 1.9 6.08 0l2.24-2.8a.54.54 0 00-.12-.787.627.627 0 00-.84.113l-2.24 2.8c-1.04 1.3-3.12 1.3-4.16 0l-2.24-2.8z"/></svg><svg viewBox="0 0 19 19" id="services" xmlns="http://www.w3.org/2000/svg"><path d="M6.652 2.054l1.2-.666a4 4 0 013.885 0l5 2.777c.182.102.355.216.516.342L13.82 6.539 6.652 2.054zm-1.322.734L2.852 4.165a4 4 0 00-.693.488l.003.002 5.974 3.36a3.25 3.25 0 003.266-.046l.004-.002.96-.568-6.72-4.205a.747.747 0 01-.316-.406zM1.244 5.819c-.29.56-.45 1.19-.45 1.843v4.293a4 4 0 002.058 3.496l5 2.778c.38.211.785.356 1.2.434a.758.758 0 01-.008-.105V9.883a4.745 4.745 0 01-1.643-.56L1.426 5.962a.75.75 0 01-.182-.143zm9.3 4.043v8.696c0 .036-.002.07-.007.105.415-.078.82-.223 1.2-.434l5-2.778a4 4 0 002.057-3.496V7.662c0-.719-.193-1.41-.541-2.01a.752.752 0 01-.077.052l-6.003 3.552h-.002a4.746 4.746 0 01-1.627.606z"/></svg><svg viewBox="0 0 21 19" id="services-man" xmlns="http://www.w3.org/2000/svg"><path d="M10.743 9.956a4.5 4.5 0 100-9 4.5 4.5 0 000 9zm0 9c3.976 0 7.2-1.813 7.2-4.05s-3.224-4.05-7.2-4.05c-3.977 0-7.2 1.813-7.2 4.05s3.223 4.05 7.2 4.05z"/><path d="M17.243 5.456a2.006 2.006 0 00-1.267-1.862l-.026-.01a1.484 1.484 0 01-.267-.145c-.252-.174-.44-.429-.44-.733 0-.414.34-.758.744-.67a3.506 3.506 0 012.756 3.42 3.494 3.494 0 01-2.756 3.42c-.405.088-.744-.256-.744-.67 0-.305.188-.56.44-.734a1.41 1.41 0 01.267-.144l.026-.01a2.006 2.006 0 001.267-1.862zm2 9c0 .087-.046.284-.276.537a2.353 2.353 0 01-.335.3 1.083 1.083 0 00-.146.13.866.866 0 00-.243.587c0 .572.587.959 1.063.64.077-.05.151-.103.223-.157l.028-.021a3.89 3.89 0 00.567-.524c.397-.452.619-.958.619-1.492s-.222-1.04-.62-1.492a3.89 3.89 0 00-.566-.524l-.028-.021a4.883 4.883 0 00-.223-.158c-.476-.318-1.063.069-1.063.64 0 .222.094.426.243.587a1.044 1.044 0 00.145.13c.142.106.252.207.336.3.23.254.276.45.276.538zm-15-9A1.997 1.997 0 015.51 3.594l.025-.01a1.488 1.488 0 00.267-.145c.253-.174.44-.429.44-.733 0-.415-.34-.759-.744-.671a3.506 3.506 0 00-2.755 3.42 3.495 3.495 0 002.755 3.421c.405.088.745-.256.745-.67 0-.305-.188-.56-.44-.734a1.422 1.422 0 00-.268-.145l-.025-.01a2.006 2.006 0 01-1.267-1.861zm-2 9c0 .087.045.284.275.537.085.093.194.194.336.3a1.098 1.098 0 01.145.13.867.867 0 01.244.587c0 .572-.588.958-1.063.64a4.971 4.971 0 01-.223-.157l-.029-.022a3.883 3.883 0 01-.567-.523c-.396-.453-.618-.959-.618-1.492 0-.534.222-1.04.618-1.493a4.04 4.04 0 01.567-.523l.029-.022c.071-.053.146-.106.223-.157.475-.318 1.063.068 1.063.64a.866.866 0 01-.244.587 1.07 1.07 0 01-.145.13 2.353 2.353 0 00-.336.3c-.23.253-.275.45-.275.538z"/></svg><svg viewBox="0 0 13 15" id="stat" xmlns="http://www.w3.org/2000/svg"><path d="M9.389 0h1.444C12.03 0 13 1.007 13 2.25v10.5c0 1.243-.97 2.25-2.167 2.25H9.39c-1.197 0-2.167-1.007-2.167-2.25V2.25c0-1.243.97-2.25 2.167-2.25zM2.167 4.5H3.61c1.197 0 2.167 1.007 2.167 2.25v6c0 1.243-.97 2.25-2.167 2.25H2.167C.97 15 0 13.993 0 12.75v-6C0 5.507.97 4.5 2.167 4.5z"/></svg><svg viewBox="0 0 22 22" id="stroi" xmlns="http://www.w3.org/2000/svg"><path fill-rule="evenodd" clip-rule="evenodd" d="M11.659.154a2.75 2.75 0 00-1.817 0l-8 2.8A2.75 2.75 0 000 5.55v1.581c0 .967.784 1.75 1.75 1.75H2v7.668c-.591.281-1 .884-1 1.582v.275c-.57.116-1 .62-1 1.225v.5c0 .966.784 1.75 1.75 1.75h18a1.75 1.75 0 001.75-1.75v-.5c0-.605-.43-1.11-1-1.225v-.275c0-.698-.409-1.3-1-1.582V8.881h.25a1.75 1.75 0 001.75-1.75V5.55a2.75 2.75 0 00-1.841-2.596l-8-2.8zM3.5 16.381v-7.5H6v7.5H3.5zm4 0v-7.5H10v7.5H7.5zm4 0v-7.5H14v7.5h-2.5zm4 0v-7.5H18v7.5h-2.5zm-6-11.75a1.25 1.25 0 112.5 0 1.25 1.25 0 01-2.5 0z"/></svg><svg viewBox="0 0 18 15" id="telegram" xmlns="http://www.w3.org/2000/svg"><path fill-rule="evenodd" clip-rule="evenodd" d="M1.27 6.456a660.35 660.35 0 019.65-4.191C15.511.338 16.466 0 17.085 0c.13 0 .439.026.645.182.155.13.207.313.232.443.026.13.052.416.026.65-.258 2.63-1.316 9.06-1.883 12.001-.233 1.25-.697 1.666-1.136 1.718-.954.078-1.703-.65-2.631-1.25-1.445-.963-2.271-1.561-3.69-2.498-1.626-1.094-.568-1.692.361-2.656.232-.26 4.49-4.139 4.567-4.503 0-.052.026-.208-.077-.286-.104-.078-.232-.052-.336-.026-.155.026-2.477 1.588-6.992 4.66-.671.468-1.265.676-1.806.676-.594 0-1.73-.338-2.58-.625C.752 8.148-.073 7.966.004 7.393c.077-.312.49-.625 1.264-.937z"/></svg><svg viewBox="0 0 19 18" id="whatsapp" xmlns="http://www.w3.org/2000/svg"><path fill-rule="evenodd" clip-rule="evenodd" d="M1.322 17.74l.456-3.194-.84-1.68a8.89 8.89 0 011.244-9.81c3.323-3.82 9.161-4.099 12.832-.611l.256.243a8.84 8.84 0 012.732 6.998c-.373 5.6-5.8 9.438-11.205 7.925l-2.019-.565-3.203.915a.2.2 0 01-.253-.22zM5.09 5.544l-.371.869c-.298.697-.396 1.474-.108 2.176a8.605 8.605 0 002.24 3.137 8.568 8.568 0 003.368 1.862c.729.205 1.486.016 2.142-.363l.843-.488a.985.985 0 00.178-1.572l-.647-.62a.967.967 0 00-1.279-.036c-.42.35-1.335.816-1.812.55-.285-.159-.963-.681-1.183-.877-.255-.227-.886-.9-1.093-1.199-.265-.382.037-1.25.22-1.677l.114-.265a.982.982 0 00-.248-1.12l-.812-.725a.979.979 0 00-1.552.348z"/></svg><svg viewBox="0 0 21 20" id="work" xmlns="http://www.w3.org/2000/svg"><path d="M4.804 6.714a3.001 3.001 0 01-2.309-5.488A3 3 0 016.093 5.97c.019.024.036.05.052.077l2 3.465a.747.747 0 01.083.531 8 8 0 0110.669 7.544h1.25a.75.75 0 010 1.5h-18.5a.75.75 0 010-1.5h1.25a7.999 7.999 0 014.22-7.052.747.747 0 01-.271-.274l-2-3.464a.759.759 0 01-.042-.083z"/></svg></svg>