<?xml version="1.0" encoding="utf-8"?><svg viewBox="0 0 21 21" xmlns="http://www.w3.org/2000/svg" xmlns:xlink="http://www.w3.org/1999/xlink"><style>:root>svg{display:none}:root>svg:target{display:block}</style><svg viewBox="0 0 19 19" id="bussines" xmlns="http://www.w3.org/2000/svg"><path d="M15.07 10.786a2.745 2.745 0 00-2.59-.072l-.395.197a5.07 5.07 0 01-4.535 0l-.395-.197a2.745 2.745 0 00-2.59.072l-.31.177a3.663 3.663 0 01-1.792.483l.439 3.728a4 4 0 003.972 3.533h.193v-3a2.75 2.75 0 115.5 0v3h.693a4 4 0 003.973-3.533l.442-3.758a3.666 3.666 0 01-2.295-.453l-.31-.177z"/><path d="M11.067 18.707v-3a1.25 1.25 0 10-2.5 0v3h2.5zM12.013.573L10.803.37a6 6 0 00-1.972 0L7.607.575l-.044.444-1.001 7.627v.004l-.052.403.624.312a6 6 0 005.367 0l.624-.312-.051-.403v-.004l-1-7.615-.061-.458zm2.64 8.611l1.89 1.08a1.444 1.444 0 002.146-1.458l-.745-5.214a2 2 0 00-.87-1.381L15.32 1.043a2 2 0 00-1.11-.336h-.667l.017.128 1 7.623.092.726zm-9.671 0l.091-.726v-.004l1-7.607.013-.14h-.663a2 2 0 00-1.11.336L2.563 2.21a2 2 0 00-.871 1.38L.946 8.807a1.444 1.444 0 002.146 1.458l1.89-1.08z"/></svg><svg viewBox="0 0 20 19" id="car" xmlns="http://www.w3.org/2000/svg"><path fill-rule="evenodd" clip-rule="evenodd" d="M.75 12.966v-2.005a2 2 0 01.08-.563l-.475-.294a.75.75 0 01.79-1.275l.144.089 1.589-5.135A4 4 0 016.699.966h6.102a4 4 0 013.821 2.817l1.589 5.133.142-.087a.75.75 0 11.79 1.275l-.474.293a2 2 0 01.081.564v2.005c0 .675-.334 1.271-.846 1.634a.742.742 0 01.096.366v1.5a1.75 1.75 0 01-1.75 1.75h-1a1.75 1.75 0 01-1.75-1.75v-1.5H6v1.5a1.75 1.75 0 01-1.75 1.75h-1a1.75 1.75 0 01-1.75-1.75v-1.5c0-.133.035-.258.096-.366a1.998 1.998 0 01-.846-1.634zM5.59 5.27l-.6 3a1 1 0 00.98 1.196h7.56a1 1 0 00.98-1.196l-.6-3a1 1 0 00-.98-.804H6.57a1 1 0 00-.98.804zM6 11.966a.75.75 0 01.75-.75h6a.75.75 0 010 1.5h-6a.75.75 0 01-.75-.75z"/></svg><svg viewBox="0 0 20 21" id="child" xmlns="http://www.w3.org/2000/svg"><path d="M9.37 16.65a.75.75 0 10-.833 1.248 3.454 3.454 0 003.832 0 .75.75 0 10-.832-1.248 1.954 1.954 0 01-2.168 0zm-.417-3.376a1.5 1.5 0 11-3 0 1.5 1.5 0 013 0z"/><path fill-rule="evenodd" clip-rule="evenodd" d="M9.97.775a.75.75 0 01.04-.001c2.342 0 4.946.518 6.895 2.397 1.962 1.892 3.11 5.016 2.854 9.892a.75.75 0 01-1.257.513c-.462 2.166-1.506 3.806-2.813 4.97-1.736 1.549-3.902 2.228-5.68 2.228-1.763 0-3.575-.548-5.002-1.814C3.858 17.94 3 16.493 2.603 14.592c-.26.134-.59.219-.955.1-.503-.166-.76-.623-.903-.992-.157-.404-.267-.936-.348-1.583C.146 10.11.086 9.06.107 8.435a4.14 4.14 0 01.154-.999L.27 7.4c.266-1.598.797-2.835 1.53-3.781.733-.948 1.642-1.568 2.606-1.974C6.06.947 7.936.865 9.395.8c.2-.008.393-.017.575-.026zM3.927 13.379c.236 2.11 1.041 3.541 2.075 4.458 1.109.984 2.547 1.437 4.008 1.437 1.429 0 3.234-.557 4.681-1.847 1.312-1.17 2.36-2.969 2.541-5.587-1.153.094-2.118.16-3.003.15a1.5 1.5 0 11-1.377-.091 9.922 9.922 0 01-.325-.048c-1.394-.226-2.729-.753-4.56-1.725-.334.611-.906 1.1-1.445 1.5a27.3 27.3 0 01-1.344.913l-.101.066a34.51 34.51 0 00-1.15.774z"/></svg><svg viewBox="0 0 13 14" id="clock" xmlns="http://www.w3.org/2000/svg"><path d="M2.836 1.482c.293-.277.308-.731-.06-.867a1.896 1.896 0 00-.708-.114 2.017 2.017 0 00-1.33.55 1.9 1.9 0 00-.42.581c-.1.216-.155.446-.162.676a1.63 1.63 0 00.121.67c.144.347.624.334.917.056l1.642-1.552z"/><path fill-rule="evenodd" clip-rule="evenodd" d="M6.5 13.5c3.59 0 6.5-2.751 6.5-6.145C13 3.96 10.09 1.21 6.5 1.21S0 3.96 0 7.355C0 10.749 2.91 13.5 6.5 13.5zm.542-9.56c0-.282-.243-.511-.542-.511-.3 0-.542.229-.542.512v4.097c0 .282.243.512.542.512h2.889c.299 0 .542-.23.542-.512 0-.283-.243-.513-.542-.513H7.042V3.941z"/><path d="M10.228.615c-.368.136-.354.59-.06.867l1.641 1.552c.293.278.773.291.917-.057.087-.21.128-.438.121-.669a1.735 1.735 0 00-.162-.676 1.9 1.9 0 00-.42-.581 2.018 2.018 0 00-1.33-.55 1.895 1.895 0 00-.707.114z"/></svg><svg viewBox="0 0 14 14" id="date" xmlns="http://www.w3.org/2000/svg"><path fill-rule="evenodd" clip-rule="evenodd" d="M9.975.5h-5.95v2.053a.52.52 0 01-.525.513.52.52 0 01-.525-.513V.5H2.8C1.254.5 0 1.725 0 3.237v7.526C0 12.275 1.254 13.5 2.8 13.5h8.4c1.546 0 2.8-1.225 2.8-2.737V3.237C14 1.725 12.746.5 11.2.5h-.175v2.053a.52.52 0 01-.525.513.52.52 0 01-.525-.513V.5zM3.5 5.974c.387 0 .7-.307.7-.685a.692.692 0 00-.7-.684c-.387 0-.7.307-.7.684 0 .378.313.685.7.685zm4.2-.685a.692.692 0 01-.7.685.692.692 0 01-.7-.685c0-.377.313-.684.7-.684.387 0 .7.307.7.684zm2.8.685c.387 0 .7-.307.7-.685a.692.692 0 00-.7-.684c-.387 0-.7.307-.7.684 0 .378.313.685.7.685zm-6.3 1.71a.692.692 0 01-.7.684.692.692 0 01-.7-.684c0-.378.313-.684.7-.684.387 0 .7.306.7.684zm2.8.684c.387 0 .7-.306.7-.684A.692.692 0 007 7c-.387 0-.7.306-.7.684 0 .378.313.684.7.684zm4.2-.684a.692.692 0 01-.7.684.692.692 0 01-.7-.684c0-.378.313-.684.7-.684.387 0 .7.306.7.684zm-7.7 3.08c.387 0 .7-.307.7-.685a.692.692 0 00-.7-.684c-.387 0-.7.306-.7.684 0 .378.313.684.7.684zm4.2-.685a.692.692 0 01-.7.684.692.692 0 01-.7-.684c0-.378.313-.684.7-.684.387 0 .7.306.7.684zm2.8.684c.387 0 .7-.306.7-.684a.692.692 0 00-.7-.684c-.387 0-.7.306-.7.684 0 .378.313.684.7.684z"/></svg><svg viewBox="0 0 16 14" id="favorite" xmlns="http://www.w3.org/2000/svg"><path d="M15.847 6.315c-.781 3.404-5.35 6.421-7.134 7.486a1.376 1.376 0 01-1.426 0C5.502 12.736.934 9.719.153 6.315-.552 3.24 1.238.047 4.268 0h.19c1.22 0 2.31.627 2.948 1.091.349.253.84.253 1.188 0C9.232.627 10.322 0 11.54 0l.19.001c3.031.046 4.82 3.24 4.116 6.314z"/></svg><svg viewBox="0 0 21 18" id="food" xmlns="http://www.w3.org/2000/svg"><path d="M7.521.482a.75.75 0 00-1.248.833c.132.197.32.553.428.929.115.398.099.671.025.82-.249.497-.389 1.082-.47 1.577a8.34 8.34 0 00-.109 1.258.75.75 0 001.5 0c0-.21.022-.596.09-1.018.07-.43.18-.845.33-1.147.327-.652.227-1.38.076-1.906A5.104 5.104 0 007.52.482zm11.376 15.417a8 8 0 10-16 0h-1.25a.75.75 0 000 1.5h18.5a.75.75 0 000-1.5h-1.25zM10.48.274a.75.75 0 011.041.208c.202.303.463.798.622 1.346.151.527.25 1.254-.075 1.906-.151.302-.261.717-.33 1.147-.07.422-.091.807-.091 1.018a.75.75 0 01-1.5 0c0-.29.028-.755.11-1.258.08-.495.22-1.08.47-1.578.073-.148.09-.42-.026-.82a3.609 3.609 0 00-.428-.928.75.75 0 01.208-1.04zm5.041.208a.75.75 0 00-1.248.833c.132.197.32.553.428.929.115.398.099.671.025.82-.249.497-.389 1.082-.47 1.577a8.34 8.34 0 00-.109 1.258.75.75 0 001.5 0c0-.21.022-.596.09-1.018.07-.43.18-.845.33-1.147.327-.652.227-1.38.076-1.906A5.103 5.103 0 0015.52.482z"/></svg><svg viewBox="0 0 21 17" id="franchiza" xmlns="http://www.w3.org/2000/svg"><path d="M17.13 8.199c.559-.418.953-.809 1.206-1.143a8 8 0 10-15.408 4.128c.386.163.923.304 1.617.387 1.703.203 4.038.02 6.568-.658 2.53-.678 4.643-1.687 6.016-2.714zm-5.24 5.611c2.33-.624 4.44-1.524 6.09-2.562a8.003 8.003 0 01-12.643 3.39c1.946.072 4.222-.203 6.552-.827z"/><path d="M1.531 10.892c-.073-.271-.026-.643.276-1.129a8.816 8.816 0 01-.041-2.207 6.966 6.966 0 00-1.084 1.19c-.535.763-.838 1.646-.6 2.534.214.797.804 1.374 1.53 1.767.724.391 1.643.636 2.667.758 2.052.245 4.68.014 7.416-.719 2.736-.733 5.128-1.848 6.782-3.085.826-.618 1.5-1.29 1.93-1.99.433-.704.656-1.498.443-2.295-.228-.85-.883-1.448-1.677-1.842a6.798 6.798 0 00-1.644-.542 8.74 8.74 0 01.91 1.557l.174.384c.494.268.716.562.788.831.072.27.027.637-.27 1.12-.3.486-.817 1.025-1.552 1.575-1.467 1.098-3.673 2.142-6.272 2.838-2.599.697-5.031.896-6.85.679-.912-.11-1.63-.318-2.132-.589-.5-.27-.722-.565-.794-.835z"/></svg><svg viewBox="0 0 20 18" id="it" xmlns="http://www.w3.org/2000/svg"><path fill-rule="evenodd" clip-rule="evenodd" d="M4 .08h12a4 4 0 014 4v8a4 4 0 01-4 4H4a4 4 0 01-4-4v-8a4 4 0 014-4zm4.398 6.137a.75.75 0 00-.795-1.272L4.958 6.597a1.75 1.75 0 000 2.968l2.644 1.652a.75.75 0 10.795-1.272L5.754 8.293a.25.25 0 010-.424l2.644-1.652zm2.966-1.034a.75.75 0 00.238 1.034l2.644 1.652a.25.25 0 010 .424l-2.644 1.652a.75.75 0 10.796 1.272l2.643-1.652a1.75 1.75 0 000-2.968l-2.643-1.652a.75.75 0 00-1.034.238z"/><path d="M8 16.33a.75.75 0 000 1.5h4a.75.75 0 000-1.5H8z"/></svg><svg viewBox="0 0 18 21" id="play" xmlns="http://www.w3.org/2000/svg"><path d="M5.967 4.919a3.483 3.483 0 116.757 0l-.168.672h2.54a2.75 2.75 0 012.75 2.75v7.5a4.75 4.75 0 01-4.75 4.75h-9.5a2.75 2.75 0 01-2.75-2.75v-2.5a.75.75 0 01.931-.727l1.605.4a1.983 1.983 0 100-3.846l-1.605.4a.75.75 0 01-.932-.727v-3.5c0-.966.784-1.75 1.75-1.75h3.54l-.168-.672z"/></svg><svg viewBox="0 0 14 14" id="plus" xmlns="http://www.w3.org/2000/svg"><path d="M7.629 1.129a.629.629 0 00-1.258 0v5.242H1.129a.629.629 0 000 1.258h5.242v5.242a.629.629 0 001.258 0V7.629h5.242a.629.629 0 000-1.258H7.629V1.129z"/></svg><svg viewBox="0 0 18 19" id="project" xmlns="http://www.w3.org/2000/svg"><path d="M5.72 2.28l.125.075c.283.17 1.082.45 2.182.533 1.067.08 2.344-.034 3.599-.563.193-.11.421-.23.674-.352l.659-1.975-2 1-2-1-2 1-2-1 .76 2.282zm2.519 6.99a.875.875 0 000 1.694V9.27zm1.25 4.722a.875.875 0 000-1.75v1.75z"/><path fill-rule="evenodd" clip-rule="evenodd" d="M12.806 3.396a9.822 9.822 0 00-.475.253.755.755 0 01-.077.038c-1.533.657-3.075.79-4.339.696-1.241-.092-2.292-.412-2.842-.742l-.188-.113C-.727 6.95-1.881 18.527 8.959 18.998 19.942 18.52 18.61 6.64 12.806 3.396zM8.864 7.373c.345 0 .624.28.624.625v.007a2.34 2.34 0 012.096 2.326.625.625 0 11-1.25 0 1.09 1.09 0 00-.845-1.061v1.722a2.125 2.125 0 010 4.25.625.625 0 01-1.25-.006v-.034a2.34 2.34 0 01-1.905-2.3.625.625 0 111.25 0c0 .448.27.832.655 1v-1.671a2.125 2.125 0 010-4.228v-.005c0-.345.28-.625.624-.625z"/><path d="M13.735 2.981c.58-.23 1.188-.413 1.723-.48.558-.07.905.001 1.085.121a.75.75 0 10.832-1.248c-.63-.42-1.422-.448-2.105-.361-.706.089-1.443.319-2.087.573a.75.75 0 10.552 1.395z"/></svg><svg viewBox="0 0 20 19" id="rem" xmlns="http://www.w3.org/2000/svg"><path d="M15.84 3.17l.002.002a.75.75 0 01-.017 1.043l-3.22 3.22.004.004L9.05 11l-.005-.003-1.22 1.22a.75.75 0 01-1.06 0l-4-4a.75.75 0 010-1.061l5.5-5.5a.751.751 0 01.324-.191l.004-.001.008-.003.028-.007a9.789 9.789 0 01.47-.119c.306-.072.732-.162 1.204-.233.47-.07 1-.125 1.515-.121.503.004 1.053.064 1.523.266.627.27 1.264.775 1.708 1.166a13.403 13.403 0 01.775.741l.013.014.004.003zm-5.73 8.89l3.56-3.56 5.405 5.405a2.518 2.518 0 01-3.561 3.56l-5.405-5.404zM2.075 9.405a.75.75 0 00-1.061 1.06l3.5 3.5a.75.75 0 101.06-1.06l-3.5-3.5z"/></svg><svg viewBox="0 0 13 13" id="search" xmlns="http://www.w3.org/2000/svg"><path fill-rule="evenodd" clip-rule="evenodd" d="M9.015 10.095c-.069-.06-.174-.085-.249-.031a5.547 5.547 0 11.931-.838c-.023.027-.018.068.008.092l3.12 2.773a.52.52 0 01-.69.778l-3.12-2.774zm1.038-4.548a4.507 4.507 0 11-9.013 0 4.507 4.507 0 019.013 0z"/></svg><svg viewBox="0 0 16 12" id="send" xmlns="http://www.w3.org/2000/svg"><path fill-rule="evenodd" clip-rule="evenodd" d="M3.2 0h9.6C14.567 0 16 1.343 16 3v6c0 1.657-1.433 3-3.2 3H3.2C1.433 12 0 10.657 0 9V3c0-1.657 1.433-3 3.2-3zm.48 1.913a.627.627 0 00-.84-.113.54.54 0 00-.12.787l2.24 2.8c1.52 1.9 4.56 1.9 6.08 0l2.24-2.8a.54.54 0 00-.12-.787.627.627 0 00-.84.113l-2.24 2.8c-1.04 1.3-3.12 1.3-4.16 0l-2.24-2.8z"/></svg><svg viewBox="0 0 19 19" id="services" xmlns="http://www.w3.org/2000/svg"><path d="M6.652 2.054l1.2-.666a4 4 0 013.885 0l5 2.777c.182.102.355.216.516.342L13.82 6.539 6.652 2.054zm-1.322.734L2.852 4.165a4 4 0 00-.693.488l.003.002 5.974 3.36a3.25 3.25 0 003.266-.046l.004-.002.96-.568-6.72-4.205a.747.747 0 01-.316-.406zM1.244 5.819c-.29.56-.45 1.19-.45 1.843v4.293a4 4 0 002.058 3.496l5 2.778c.38.211.785.356 1.2.434a.758.758 0 01-.008-.105V9.883a4.745 4.745 0 01-1.643-.56L1.426 5.962a.75.75 0 01-.182-.143zm9.3 4.043v8.696c0 .036-.002.07-.007.105.415-.078.82-.223 1.2-.434l5-2.778a4 4 0 002.057-3.496V7.662c0-.719-.193-1.41-.541-2.01a.752.752 0 01-.077.052l-6.003 3.552h-.002a4.746 4.746 0 01-1.627.606z"/></svg><svg viewBox="0 0 21 19" id="services-man" xmlns="http://www.w3.org/2000/svg"><path d="M10.743 9.956a4.5 4.5 0 100-9 4.5 4.5 0 000 9zm0 9c3.976 0 7.2-1.813 7.2-4.05s-3.224-4.05-7.2-4.05c-3.977 0-7.2 1.813-7.2 4.05s3.223 4.05 7.2 4.05z"/><path d="M17.243 5.456a2.006 2.006 0 00-1.267-1.862l-.026-.01a1.484 1.484 0 01-.267-.145c-.252-.174-.44-.429-.44-.733 0-.414.34-.758.744-.67a3.506 3.506 0 012.756 3.42 3.494 3.494 0 01-2.756 3.42c-.405.088-.744-.256-.744-.67 0-.305.188-.56.44-.734a1.41 1.41 0 01.267-.144l.026-.01a2.006 2.006 0 001.267-1.862zm2 9c0 .087-.046.284-.276.537a2.353 2.353 0 01-.335.3 1.083 1.083 0 00-.146.13.866.866 0 00-.243.587c0 .572.587.959 1.063.64.077-.05.151-.103.223-.157l.028-.021a3.89 3.89 0 00.567-.524c.397-.452.619-.958.619-1.492s-.222-1.04-.62-1.492a3.89 3.89 0 00-.566-.524l-.028-.021a4.883 4.883 0 00-.223-.158c-.476-.318-1.063.069-1.063.64 0 .222.094.426.243.587a1.044 1.044 0 00.145.13c.142.106.252.207.336.3.23.254.276.45.276.538zm-15-9A1.997 1.997 0 015.51 3.594l.025-.01a1.488 1.488 0 00.267-.145c.253-.174.44-.429.44-.733 0-.415-.34-.759-.744-.671a3.506 3.506 0 00-2.755 3.42 3.495 3.495 0 002.755 3.421c.405.088.745-.256.745-.67 0-.305-.188-.56-.44-.734a1.422 1.422 0 00-.268-.145l-.025-.01a2.006 2.006 0 01-1.267-1.861zm-2 9c0 .087.045.284.275.537.085.093.194.194.336.3a1.098 1.098 0 01.145.13.867.867 0 01.244.587c0 .572-.588.958-1.063.64a4.971 4.971 0 01-.223-.157l-.029-.022a3.883 3.883 0 01-.567-.523c-.396-.453-.618-.959-.618-1.492 0-.534.222-1.04.618-1.493a4.04 4.04 0 01.567-.523l.029-.022c.071-.053.146-.106.223-.157.475-.318 1.063.068 1.063.64a.866.866 0 01-.244.587 1.07 1.07 0 01-.145.13 2.353 2.353 0 00-.336.3c-.23.253-.275.45-.275.538z"/></svg><svg viewBox="0 0 13 15" id="stat" xmlns="http://www.w3.org/2000/svg"><path d="M9.389 0h1.444C12.03 0 13 1.007 13 2.25v10.5c0 1.243-.97 2.25-2.167 2.25H9.39c-1.197 0-2.167-1.007-2.167-2.25V2.25c0-1.243.97-2.25 2.167-2.25zM2.167 4.5H3.61c1.197 0 2.167 1.007 2.167 2.25v6c0 1.243-.97 2.25-2.167 2.25H2.167C.97 15 0 13.993 0 12.75v-6C0 5.507.97 4.5 2.167 4.5z"/></svg><svg viewBox="0 0 18 15" id="telegram" xmlns="http://www.w3.org/2000/svg"><path fill-rule="evenodd" clip-rule="evenodd" d="M1.27 6.456a660.35 660.35 0 019.65-4.191C15.511.338 16.466 0 17.085 0c.13 0 .439.026.645.182.155.13.207.313.232.443.026.13.052.416.026.65-.258 2.63-1.316 9.06-1.883 12.001-.233 1.25-.697 1.666-1.136 1.718-.954.078-1.703-.65-2.631-1.25-1.445-.963-2.271-1.561-3.69-2.498-1.626-1.094-.568-1.692.361-2.656.232-.26 4.49-4.139 4.567-4.503 0-.052.026-.208-.077-.286-.104-.078-.232-.052-.336-.026-.155.026-2.477 1.588-6.992 4.66-.671.468-1.265.676-1.806.676-.594 0-1.73-.338-2.58-.625C.752 8.148-.073 7.966.004 7.393c.077-.312.49-.625 1.264-.937z"/></svg><svg viewBox="0 0 19 18" id="whatsapp" xmlns="http://www.w3.org/2000/svg"><path fill-rule="evenodd" clip-rule="evenodd" d="M1.322 17.74l.456-3.194-.84-1.68a8.89 8.89 0 011.244-9.81c3.323-3.82 9.161-4.099 12.832-.611l.256.243a8.84 8.84 0 012.732 6.998c-.373 5.6-5.8 9.438-11.205 7.925l-2.019-.565-3.203.915a.2.2 0 01-.253-.22zM5.09 5.544l-.371.869c-.298.697-.396 1.474-.108 2.176a8.605 8.605 0 002.24 3.137 8.568 8.568 0 003.368 1.862c.729.205 1.486.016 2.142-.363l.843-.488a.985.985 0 00.178-1.572l-.647-.62a.967.967 0 00-1.279-.036c-.42.35-1.335.816-1.812.55-.285-.159-.963-.681-1.183-.877-.255-.227-.886-.9-1.093-1.199-.265-.382.037-1.25.22-1.677l.114-.265a.982.982 0 00-.248-1.12l-.812-.725a.979.979 0 00-1.552.348z"/></svg><svg viewBox="0 0 21 20" id="work" xmlns="http://www.w3.org/2000/svg"><path d="M4.804 6.714a3.001 3.001 0 01-2.309-5.488A3 3 0 016.093 5.97c.019.024.036.05.052.077l2 3.465a.747.747 0 01.083.531 8 8 0 0110.669 7.544h1.25a.75.75 0 010 1.5h-18.5a.75.75 0 010-1.5h1.25a7.999 7.999 0 014.22-7.052.747.747 0 01-.271-.274l-2-3.464a.759.759 0 01-.042-.083z"/></svg></svg>